<svg width="1053" height="745" viewBox="0 0 1053 745" fill="none" xmlns="http://www.w3.org/2000/svg">
<g clip-path="url(#clip0_2_4256)">
<g filter="url(#filter0_d_2_4256)">
<path d="M203.997 141.295C292.145 129.546 382.282 239.283 474.026 235.511C565.774 231.74 486.815 118.992 658.75 135.49C785.701 141.295 908.654 235.511 908.654 235.511V315.468L723.399 337.965H0V244.977C0 244.977 115.852 153.043 203.997 141.297V141.295Z" fill="#3C2B42"/>
<path d="M1843.3 228.612C1940.26 173.985 1843.3 330.966 1843.3 330.966M723.369 337.465H0.5V245.219C0.541295 245.186 0.589283 245.149 0.643898 245.106C0.865129 244.932 1.1951 244.674 1.62942 244.336C2.49807 243.661 3.78414 242.669 5.45258 241.402C8.78948 238.867 13.6558 235.233 19.771 230.834C32.002 222.037 49.2274 210.186 69.2048 197.968C109.178 173.521 160.101 147.651 204.063 141.793L204.497 141.735V141.734C226.277 138.93 248.205 143.553 270.295 152.057C292.535 160.618 314.902 173.097 337.417 185.847C338.558 186.493 339.7 187.14 340.842 187.788C362.217 199.901 383.724 212.088 405.331 221.19C428.096 230.778 451.009 236.958 474.047 236.011C497.113 235.063 509.529 227.25 517.816 216.273C521.945 210.804 525.036 204.568 527.916 198.059C528.844 195.96 529.749 193.836 530.66 191.7C532.582 187.191 534.527 182.625 536.766 178.122C543.345 164.886 552.391 152.328 570.461 144.083C588.556 135.826 615.758 131.867 658.702 135.988L658.714 135.989L658.727 135.989C722.097 138.887 784.498 163.856 831.078 188.121C854.363 200.251 873.685 212.2 887.184 221.116C893.933 225.574 899.227 229.274 902.832 231.858C904.635 233.15 906.015 234.163 906.945 234.853C907.409 235.198 907.761 235.462 907.997 235.64C908.057 235.685 908.11 235.725 908.154 235.759V315.025L723.369 337.465Z" stroke="#3C2B42"/>
</g>
<g filter="url(#filter1_d_2_4256)">
<path d="M203.997 141.295C292.145 129.546 382.282 239.283 474.026 235.511C565.774 231.74 486.815 118.992 658.75 135.49C785.701 141.295 908.654 235.511 908.654 235.511V315.468L723.399 337.965H0V235.511C0 235.511 115.852 153.042 203.997 141.297V141.295Z" fill="#3C2B42"/>
<path d="M723.369 337.465H0.5V235.77C0.536367 235.744 0.577408 235.715 0.623083 235.683C0.844325 235.527 1.1743 235.295 1.60864 234.992C2.47732 234.386 3.76342 233.496 5.43189 232.358C8.76886 230.082 13.6352 226.817 19.7506 222.862C31.9818 214.951 49.2077 204.282 69.1857 193.246C109.157 171.166 160.088 147.653 204.063 141.793L204.497 141.735V141.734C226.277 138.93 248.205 143.553 270.295 152.057C292.535 160.618 314.902 173.097 337.417 185.847C338.558 186.493 339.7 187.14 340.842 187.787C362.217 199.901 383.724 212.088 405.331 221.19C428.096 230.778 451.009 236.958 474.047 236.011C497.113 235.063 509.529 227.25 517.816 216.273C521.945 210.804 525.036 204.568 527.916 198.059C528.844 195.96 529.749 193.836 530.66 191.7C532.582 187.191 534.527 182.625 536.766 178.122C543.345 164.886 552.391 152.328 570.461 144.083C588.556 135.826 615.758 131.867 658.702 135.988L658.714 135.989L658.727 135.989C722.097 138.887 784.498 163.856 831.078 188.121C854.363 200.251 873.685 212.2 887.184 221.116C893.933 225.574 899.227 229.274 902.832 231.858C904.635 233.15 906.015 234.163 906.945 234.853C907.409 235.198 907.761 235.462 907.997 235.64L908.138 235.746L908.154 235.759V315.025L723.369 337.465Z" stroke="#3C2B42"/>
</g>
<path d="M85.351 292.322C114.751 287.749 141.679 304.757 171.141 300.26C190.632 296.224 209.475 299.689 229.406 304.23C251.195 305.591 274.074 299.636 294.2 312.169C303.836 334.738 320.834 322.991 332.71 332.016C349.112 330.074 364.968 345.742 381.205 328.046C412.898 329.094 443.797 327.384 473.914 312.169C494.261 303.871 512.214 313.873 533.885 312.169C547.118 317.761 556.401 314.468 575.181 312.169C592.427 313.468 601.934 305.969 618.946 322.967C638.46 339.965 657.705 338.703 675.987 324.467C697.367 324.951 888.685 289.364 908.655 280.415V380.879V462.95H0V280.415C33.0676 278.914 54.6955 280.842 85.352 292.323L85.351 292.322Z" fill="#767676"/>
<path d="M647.87 356.749C647.87 363.061 641.069 364.899 632.436 364.899C623.802 364.899 616.605 363.061 616.605 356.749C616.605 350.438 623.604 345.321 632.238 345.321C640.871 345.321 647.87 350.438 647.87 356.749V356.749Z" fill="#181818" stroke="#131C06" stroke-width="2.0267"/>
<path d="M670.62 346.636C675.153 340.971 680.06 331.929 684.306 326.038C678.652 331.114 673.726 340.077 668.51 345.594L670.62 346.636Z" fill="#181818"/>
<path d="M670.563 349.448C675.161 344.404 678.803 335.185 688.365 332.284C678.417 333.799 674.196 343.171 668.727 347.976L670.563 349.448Z" fill="#181818"/>
<path d="M669.853 351.266C676.179 347.716 684.118 341.174 690.263 337.307C683.119 339.891 675.192 346.352 668.288 349.51L669.853 351.266Z" fill="#181818"/>
<path d="M699.647 360.215C699.647 366.883 692.846 368.825 684.213 368.825C675.579 368.825 668.383 366.883 668.383 360.215C668.383 353.547 675.381 348.142 684.015 348.142C692.648 348.142 699.647 353.547 699.647 360.215V360.215Z" fill="#181818" stroke="#131C06" stroke-width="2.08313"/>
<path d="M617.082 362.488L599.07 349.607L597.811 348.482L601.449 350.571L618.621 362.006L617.082 362.488Z" fill="#181818"/>
<path d="M626.142 362.431C620.495 357.877 600.958 341.041 595.542 336.204C602.156 339.942 621.695 356.697 627.977 360.959L626.142 362.431Z" fill="#181818"/>
<path d="M629.55 362.687L612.359 343.998L611.225 342.747L614.623 345.207L632.391 362.51L629.55 362.687Z" fill="#181818"/>
<path d="M628.926 360.926C628.417 353.688 624.006 331.914 623.863 324.652C625.627 332.043 629.172 354.221 630.326 361.724L628.926 360.926Z" fill="#181818"/>
<path d="M592.429 361.977L610.831 362.274L616.866 361.185L622.557 360.033L627.903 360.361L629.865 361.229L631.311 361.573L631.148 361.191L631.707 365.54L610.534 364.154L603.213 363.56L597.672 363.857L595.298 362.571L592.429 361.977Z" fill="#181818"/>
<path d="M631.936 362.005L616.899 336.081L616.131 334.498L618.654 337.762L633.361 361.846L631.936 362.005Z" fill="#181818"/>
<path d="M651.704 154.968C650.906 155.002 650.136 155.113 649.327 155.251C635.851 158.617 629.948 169.287 630.82 186.388C632.908 198.764 634.38 197.907 636.027 222.053C636.381 233.793 624.604 231.785 620.972 224.884C616.813 216.816 618.582 202.086 621.255 190.522C623.717 179.807 615.998 166.537 603.88 168.614C593.134 170.247 586.931 180.125 586.845 191.371C585.601 211.094 587.313 233.778 603.654 246.284C618.034 255.921 627.141 247.687 632.349 258.569C633.034 268.431 633.171 287.978 633.194 308.064C631.851 315.821 624.959 314.233 622.231 308.574C618.865 301.594 618.843 289.208 621.32 282.063C625.978 267.615 617.854 264.402 609.322 264.571C608.753 264.582 608.221 264.695 607.624 264.797C599.157 266.084 594.278 273.824 594.211 282.686C593.23 298.226 594.578 316.138 607.454 325.994C616.397 331.987 628.888 329.216 633.198 331.994C633.187 345.123 633.172 357.179 633.311 364.035L672.532 366.809C672.418 350.895 672.014 334.984 672.079 319.086C673.758 303.271 687.057 305.844 693.869 307.311C705.826 308.896 713.535 298.47 717.299 289.422C722.126 271.829 724.705 246.737 711.413 230.717C705.853 222.701 691.415 220.667 684.077 231.792C677.326 244.481 687.878 258.616 687.926 272.1C688.797 289.28 671.643 293.283 669.136 281.441C667.38 250.582 679.324 211.917 674.965 176.825C674.231 165.213 663.681 154.457 651.705 154.973L651.704 154.968Z" fill="#181818" stroke="#0A0A09" stroke-width="3.78745"/>
<path d="M637.531 163.243L629.836 157.33L628.542 157.365L629.066 158.345L636.902 165.203L637.531 163.243Z" fill="#181818"/>
<path d="M656.788 154.167L657.977 149.478L659.237 148.988L658.817 149.898L657.977 154.097L656.788 154.167Z" fill="#181818"/>
<path d="M661.702 157.863L664.073 153.617L666.209 152.518L665.434 153.451L663.686 157.124L661.702 157.863Z" fill="#181818"/>
<path d="M634.39 187.676L622.541 187.354L621.286 188.319L622.508 188.911L635.173 190.068L634.39 187.676Z" fill="#181818"/>
<path d="M635.556 183.833L626.002 182.133L624.869 182.76L625.786 183.388L635.9 185.862L635.556 183.833Z" fill="#181818"/>
<path d="M636.385 194.978L627.587 195.042L626.133 193.952L627.929 194.123L635.702 193.847L636.385 194.978Z" fill="#181818"/>
<path d="M674.625 175.121L680.996 174.494L680.699 172.944L673.241 173.224L674.625 175.121Z" fill="#181818"/>
<path d="M598.734 171.209L593.439 163.075L592.206 162.678L592.376 163.777L597.49 172.848L598.734 171.209Z" fill="#181818"/>
<path d="M604.244 172.641L606.588 163.222L607.622 162.444L607.821 163.537L605.956 173.783L604.244 172.641Z" fill="#181818"/>
<path d="M613.418 179.997L622.745 177.317L623.936 177.824L623.089 178.543L613.286 182.05L613.418 179.997Z" fill="#181818"/>
<path d="M615.917 192.994C618.531 192.926 621.146 192.949 623.76 192.977C624.694 192.993 624.268 192.983 625.038 193.002C625.123 193.024 624.814 194.228 624.729 194.206C623.951 194.225 624.381 194.215 623.438 194.232C620.827 194.259 618.215 194.282 615.604 194.215C615.518 194.192 615.831 192.972 615.917 192.994L615.917 192.994Z" fill="#181818"/>
<path d="M710.269 236.151C712.271 235.409 714.162 234.406 716.128 233.583C716.365 233.452 716.793 233.273 716.909 233.231C717.455 232.867 718.049 232.582 718.629 232.276C718.697 232.222 719.467 233.174 719.399 233.229C718.861 233.543 718.284 233.789 717.744 234.097C717.245 234.442 717.39 234.198 716.834 234.624C714.864 235.516 712.966 236.583 710.895 237.24C710.818 237.284 710.192 236.195 710.269 236.151L710.269 236.151Z" fill="#181818"/>
<path d="M667.013 326.976C669.694 326.912 672.377 326.916 675.058 326.971C675.723 326.99 676.387 327.008 677.053 326.996C677.704 326.988 678.355 326.988 679.006 326.988C679.091 327.01 678.782 328.212 678.697 328.191C678.048 328.191 677.398 328.191 676.749 328.182C676.078 328.171 675.41 328.188 674.74 328.208C672.06 328.262 669.378 328.267 666.698 328.202C666.611 328.179 666.926 326.952 667.013 326.975L667.013 326.976Z" fill="#181818"/>
<path d="M597.115 287.402C594.635 287.249 592.158 287.044 589.673 286.977C589.451 286.968 589.229 286.975 589.007 286.985C588.929 287.019 588.453 285.91 588.531 285.876C589.016 285.749 589.5 285.728 590.005 285.742C592.519 285.743 595.032 285.916 597.529 286.21C597.613 286.239 597.199 287.429 597.115 287.4V287.402Z" fill="#181818"/>
<path d="M605.437 275.157C603.411 287.319 601.881 299.437 604.932 311.158L602.241 308.971C599.454 297.149 602.026 286.094 605.437 275.158L605.437 275.157Z" fill="#181818"/>
<path d="M604.244 291.521C601.764 291.368 599.287 291.164 596.802 291.096C596.58 291.087 596.358 291.095 596.137 291.104C596.058 291.138 595.582 290.029 595.66 289.995C596.145 289.868 596.629 289.847 597.134 289.861C599.648 289.862 602.161 290.036 604.658 290.329C604.742 290.358 604.328 291.548 604.244 291.519V291.521Z" fill="#181818"/>
<path d="M655.368 340.755C655.705 340.713 656.043 340.671 656.38 340.628C656.467 340.597 656.896 341.82 656.81 341.851C656.47 341.879 656.13 341.906 655.791 341.934C655.708 341.964 655.285 340.785 655.368 340.755V340.755Z" fill="#181818"/>
<path d="M658.549 347.204C660.771 347.356 662.997 347.436 665.17 347.956C665.416 348.067 665.662 348.08 665.901 348.147C665.978 348.182 665.48 349.272 665.403 349.237C665.153 349.243 664.906 349.1 664.657 349.099C662.494 348.727 660.301 348.667 658.126 348.383C658.043 348.353 658.466 347.174 658.549 347.204L658.549 347.204Z" fill="#181818"/>
<path d="M660.992 355.215C663.023 355.738 665.176 356.13 667.041 357.134C667.112 357.186 666.377 358.19 666.306 358.138C664.431 357.344 662.409 356.933 660.463 356.353C660.383 356.315 660.911 355.178 660.992 355.215H660.992Z" fill="#181818"/>
<path d="M687.718 254.748C685.441 254.165 683.122 253.77 680.847 253.181C681.581 253.063 679.968 253.084 680.188 253.042C680.284 253.024 680.385 253.063 680.483 253.053C680.508 253.05 680.576 253.004 680.551 253.011C679.934 253.184 680.489 253.157 679.63 253.069C678.856 252.893 678.059 252.873 677.268 252.869C677.219 252.87 677.171 252.872 677.122 252.873C677.037 252.896 676.717 251.701 676.801 251.678C677.065 251.675 677.328 251.675 677.591 251.672C678.439 251.693 679.289 251.748 680.113 251.963C680.039 251.966 679.96 251.946 679.891 251.972C679.843 251.99 679.739 252.097 679.788 252.084C679.885 252.059 679.949 251.952 680.048 251.931C680.501 251.833 680.952 251.951 681.392 252.036C683.686 252.522 686.001 252.919 688.247 253.608C688.327 253.645 687.799 254.783 687.718 254.745L687.718 254.748Z" fill="#181818"/>
<path d="M717.938 256.873C720.052 256.823 722.168 256.83 724.283 256.876C724.412 256.879 724.542 256.884 724.672 256.887C724.757 256.909 724.451 258.099 724.367 258.078C724.235 258.081 724.103 258.086 723.971 258.089C721.856 258.134 719.74 258.142 717.625 258.092C717.538 258.07 717.852 256.85 717.938 256.872L717.938 256.873Z" fill="#181818"/>
<path d="M598.706 237.375C596.722 239.207 594.701 241.028 592.446 242.567C592.013 242.833 591.563 243.068 591.116 243.31L591.42 241.75C593.612 240.236 595.542 238.43 597.57 236.732C597.629 236.653 598.765 237.296 598.706 237.376L598.706 237.375Z" fill="#181818"/>
<path d="M655.056 290.356C655.976 290.749 656.868 291.556 657.774 292.163C657.984 292.241 657.889 292.164 658.062 292.366C658.097 292.423 657.835 293.932 657.8 293.875C657.676 293.838 657.763 293.866 657.538 293.781C656.625 293.25 655.724 292.521 654.812 291.965C654.775 291.912 655.018 290.303 655.056 290.356V290.356Z" fill="#181818"/>
<path d="M681.924 268.083C684.714 268.778 687.332 270.074 690.168 270.584C691.418 270.419 689.968 270.717 690.566 270.493C690.669 270.434 691.515 271.894 691.412 271.954C690.81 272.237 690.137 272.297 689.479 272.217C686.569 271.702 683.843 270.521 681.039 269.623C680.931 269.561 681.815 268.021 681.924 268.083L681.924 268.083Z" fill="#181818"/>
<path d="M686.468 222.784C687.703 223.958 688.683 225.357 689.801 226.633C690.498 227.428 691.246 228.139 691.878 228.987C692.363 229.54 692.178 229.776 691.977 230.484C691.93 230.595 690.365 229.928 690.412 229.818C691.061 228.648 690.917 230.81 690.401 229.926C689.717 229.138 688.945 228.44 688.251 227.661C687.153 226.428 686.199 225.074 685.062 223.876C684.985 223.776 686.391 222.685 686.468 222.784L686.468 222.784Z" fill="#181818"/>
<path d="M703.822 227.083C705.166 224.802 706.404 222.37 708.217 220.414L709.04 219.922L705.405 227.886C705.349 227.998 703.765 227.195 703.822 227.083L703.822 227.083Z" fill="#181818"/>
<path d="M616.343 226.392C618.221 224.527 620.036 222.488 622.285 221.057L623.206 220.789L617.672 227.57C617.588 227.664 616.26 226.486 616.343 226.392L616.343 226.392Z" fill="#181818"/>
<path d="M589.163 183.352C586.519 183.221 583.807 182.919 581.177 183.36L580.314 183.777L588.963 185.117C589.088 185.131 589.287 183.366 589.163 183.352V183.352Z" fill="#181818"/>
<path d="M598.791 279.788C596.147 279.657 593.436 279.355 590.806 279.796L589.943 280.214L598.591 281.554C598.716 281.568 598.916 279.803 598.791 279.789V279.788Z" fill="#181818"/>
<path d="M605.92 283.907C603.276 283.776 600.565 283.475 597.935 283.916L597.072 284.333L605.72 285.673C605.845 285.687 606.045 283.923 605.92 283.909V283.907Z" fill="#181818"/>
<path d="M651.392 329.164C650.337 329.033 649.255 328.731 648.205 329.169L647.861 329.587L651.312 330.927C651.362 330.941 651.441 329.176 651.391 329.162L651.392 329.164Z" fill="#181818"/>
<path d="M651.903 159.042C650.344 160.554 648.199 161.155 646.263 162.631C644.328 164.108 642.764 166.518 642.477 171.35V171.389C641.486 190.891 645.459 204.532 648.722 219.989C651.236 236.262 650.049 267.683 643.937 282.672L643.897 282.712V282.791C632.058 318.126 646.143 336.456 649.34 361.371L650.602 361.213C643.585 329.389 640.992 305.977 645.12 283.064C645.122 283.05 645.118 283.039 645.12 283.025C652.954 264.555 654.045 242.962 651.864 219.868V219.828L651.824 219.789C649.355 206.769 639.738 170.367 647.052 163.614C648.622 161.932 650.017 161.403 651.903 159.039L651.903 159.042Z" fill="#181818"/>
<path d="M659.77 163.874C661.776 172.551 665.079 181.529 665.787 189.906C666.494 198.283 664.574 205.674 663.968 213.559C665.554 203.482 669.455 191.967 668.725 183.328C667.995 174.689 662.755 170.359 659.77 163.874H659.77Z" fill="#181818"/>
<path d="M664.996 236.926C666.948 261.933 656.521 275.859 655.814 284.237C655.106 292.614 662.369 322.172 658.325 332.235C660.895 318.199 652.146 286.299 652.876 277.66C653.606 269.021 662.605 265.878 664.997 236.929L664.996 236.926Z" fill="#181818"/>
<path d="M696.097 236.165C691.098 254.19 696.742 265.873 696.064 272.106C695.387 278.339 692.926 283.475 691.356 289.159C693.956 282.01 698.455 274.139 699.154 267.711C699.853 261.283 693.714 257.697 696.097 236.165V236.165Z" fill="#181818"/>
<path d="M708.196 239.273C710.58 253.582 712.38 267.839 708.79 281.629L711.956 279.056C715.236 265.147 712.21 252.139 708.196 239.271V239.273Z" fill="#181818"/>
<path d="M596.036 231.725C593.578 232.478 591.085 233.209 588.433 233.643C587.932 233.703 587.422 233.735 586.913 233.771L587.626 232.662C590.208 232.227 592.606 231.476 595.073 230.842C595.152 230.8 596.115 231.683 596.036 231.725H596.036Z" fill="#181818"/>
<path d="M579.108 202.099C581.722 202.031 584.337 202.055 586.951 202.082C587.885 202.098 587.459 202.088 588.229 202.108C588.314 202.13 588.005 203.333 587.92 203.311C587.141 203.33 587.572 203.321 586.629 203.337C584.018 203.364 581.405 203.388 578.795 203.32C578.709 203.298 579.022 202.077 579.108 202.1L579.108 202.099Z" fill="#181818"/>
<path d="M588.765 205.125C586.121 204.994 583.41 204.692 580.78 205.133L579.917 205.55L588.565 206.89C588.69 206.904 588.89 205.14 588.765 205.125V205.125Z" fill="#181818"/>
<path d="M691.153 368.633C694.408 362.149 697.326 352.282 700.253 345.638C695.78 351.779 692.827 361.572 688.873 368.054L691.153 368.633Z" fill="#181818"/>
<path d="M691.611 367.671C696.208 362.627 699.85 353.408 709.412 350.506C699.464 352.021 695.243 361.393 689.774 366.198L691.611 367.671Z" fill="#181818"/>
<path d="M690.901 369.485C697.227 365.935 705.166 359.393 711.311 355.525C704.167 358.11 696.24 364.571 689.336 367.728L690.901 369.485Z" fill="#181818"/>
<path d="M690.143 368.412C691.643 361.313 691.957 351.03 693.099 343.858C690.334 350.935 689.967 361.157 687.791 368.433L690.143 368.412Z" fill="#181818"/>
<path d="M618.19 368.568C623.758 367.973 629.351 367.691 634.948 367.644C637.731 367.598 640.503 367.849 643.279 367.97C645.419 367.993 647.559 367.933 649.699 367.904C652.21 367.741 654.633 368.482 657.092 368.839C657.866 368.947 658.645 368.953 659.423 368.924C659.479 368.907 659.701 369.697 659.645 369.713C658.691 369.736 657.737 369.754 656.79 369.611C654.505 369.27 652.244 368.596 649.916 368.714C647.627 368.739 645.337 368.804 643.048 368.756C640.424 368.65 637.803 368.462 635.175 368.499C629.594 368.55 624.025 368.862 618.466 369.361C618.41 369.381 618.134 368.587 618.19 368.568L618.19 368.568Z" fill="#181818"/>
<path d="M652.897 375.841C647.344 375.829 641.78 376.103 636.251 375.495C635.353 375.264 634.17 375.365 633.434 374.674C633.187 374.443 633.163 374.075 632.876 373.912C630.905 373.878 628.92 373.62 626.972 373.308C624.154 372.996 621.444 372.179 618.686 371.577C617.702 371.551 617.004 371.067 616.291 370.467C616.253 370.424 616.855 369.889 616.893 369.932C617.527 370.479 618.157 370.802 619.029 370.829C621.779 371.419 624.488 372.188 627.29 372.52C628.726 372.746 630.159 372.893 631.603 373.061C632.074 373.116 632.556 373.098 633.019 373.202C633.183 373.239 633.331 373.33 633.487 373.395C633.658 373.579 633.796 373.916 633.979 374.076C634.635 374.65 635.794 374.423 636.537 374.68C641.909 375.197 647.3 374.935 652.689 375.028C652.747 375.014 652.955 375.826 652.898 375.841L652.897 375.841Z" fill="#181818"/>
<path d="M625.631 370.585C632.024 371.793 638.519 372.22 645.013 372.319C648.186 372.354 651.346 372.099 654.499 371.787C656.668 371.87 658.788 371.585 660.935 371.31C663.734 371.157 666.476 370.625 669.238 370.185C670.231 370.016 671.231 370.042 672.228 370.142C672.282 370.159 672.02 370.929 671.965 370.911C671.157 370.842 670.353 370.797 669.548 370.951C666.782 371.402 664.039 371.975 661.23 372.103C659.079 372.368 656.94 372.654 654.768 372.556C651.448 372.906 648.126 373.271 644.778 373.192C638.245 373.103 631.703 372.678 625.29 371.353C625.236 371.328 625.576 370.56 625.631 370.584L625.631 370.585Z" fill="#181818"/>
<path d="M652.13 367.147C646.803 367.377 641.5 366.914 636.208 366.373C633.478 366.023 630.739 366.123 628.001 366.258C624.679 366.25 621.405 366.812 618.113 367.18C615.518 367.309 612.789 367.712 610.239 367.046C607.458 365.986 604.531 365.589 601.605 365.156C597.323 364.698 593.091 363.838 588.788 363.587C588.576 363.589 588.365 363.595 588.153 363.598C588.097 363.615 587.881 362.82 587.937 362.805C588.302 362.799 588.668 362.791 589.033 362.785C593.364 363.01 597.623 363.851 601.926 364.343C604.869 364.796 607.798 365.257 610.6 366.307C612.952 366.855 615.444 366.489 617.825 366.376C621.133 366.011 624.421 365.43 627.76 365.452C630.671 365.316 633.587 365.202 636.491 365.555C641.623 366.042 646.76 366.47 651.922 366.332C651.979 366.318 652.188 367.131 652.131 367.146L652.13 367.147Z" fill="#181818"/>
<path d="M637.02 370.045C641.606 368.974 646.293 368.46 650.96 367.885C654.077 367.656 657.183 367.299 660.299 367.043C660.806 367.133 665.252 366.271 663.034 367.971C662.756 368.183 662.36 368.159 662.023 368.252C657.425 369.155 652.87 370.165 648.207 370.678C643.214 371.095 638.149 370.741 633.421 369.036C632.126 368.874 631.396 367.395 630.098 367.472C628.828 367.667 627.588 367.755 626.711 368.791C627.214 370.066 631.951 371.099 633.104 371.36C637.614 372.205 642.181 372.667 646.717 373.349C649.399 373.592 652.049 374.049 654.714 374.423C656.163 374.546 657.614 374.37 659.059 374.271C661.063 374.013 662.986 374.353 664.924 374.832C666.749 375.287 668.613 375.351 670.478 375.229C672.037 375.244 673.441 374.579 674.928 374.225C675.949 374.04 676.988 373.974 678.024 373.998C678.33 374.007 678.638 374.012 678.941 374.052C679.041 374.066 679.294 374.089 679.223 374.161C678.918 374.467 678.496 374.629 678.132 374.863C674.885 374.396 671.694 373.534 668.496 372.799C664.309 371.996 660.037 372.238 655.811 372.478C653.761 372.552 651.714 372.89 649.661 372.776C649.857 372.502 649.97 372.141 650.251 371.955C650.509 371.783 650.858 371.833 651.163 371.777C651.645 371.688 652.129 371.611 652.61 371.519C655.086 371.045 657.543 370.473 660.014 369.974C665.188 369.28 670.232 367.806 675.428 367.276C675.861 367.305 677.08 367.099 677.43 367.678C677.698 368.121 677.4 368.507 677.812 368.792C679.834 369.67 682.047 369.691 684.199 369.957C686.247 370.283 688.303 370.545 690.38 370.472C691.682 370.326 692.906 370.287 694.178 370.631C694.23 370.656 693.862 371.387 693.81 371.361C692.725 371.086 691.721 371.105 690.604 371.262C688.354 371.32 686.127 371.121 683.907 370.749C681.616 370.473 679.144 370.487 677.128 369.22C677.017 369.038 676.873 368.872 676.796 368.673C676.754 368.564 676.788 368.439 676.782 368.321C676.811 368.299 676.879 368.286 676.868 368.251C676.777 367.954 675.818 368.114 675.707 368.069C670.541 368.635 665.53 370.143 660.375 370.794C657.892 371.281 655.422 371.847 652.933 372.297C652.454 372.384 651.972 372.449 651.493 372.533C651.164 372.591 650.826 372.829 650.509 372.725C650.211 372.627 650.101 372.248 649.898 372.009C651.778 372.172 653.676 371.62 655.553 371.649C659.987 371.38 664.473 371.144 668.86 372.025C672.016 372.752 675.164 373.604 678.367 374.078C678.52 374.337 678.707 374.58 678.828 374.856C678.845 374.897 678.741 374.836 678.696 374.83C678.541 374.816 678.386 374.802 678.23 374.799C677.242 374.776 676.252 374.807 675.276 374.971C673.746 375.294 672.323 376.021 670.728 376.01C668.657 376.168 666.584 376.086 664.56 375.576C662.815 375.152 661.113 374.806 659.307 375.051C657.681 375.158 656.048 375.359 654.42 375.187C651.747 374.825 649.085 374.407 646.399 374.154C641.843 373.485 637.253 373.027 632.733 372.141C631.259 371.789 626.5 370.786 625.96 369.005C625.895 368.791 626.008 368.56 626.033 368.338C627.136 367.025 628.679 366.792 630.322 366.695C631.686 366.832 632.52 367.984 633.851 368.309C638.356 369.86 643.174 370.184 647.908 369.835C652.545 369.353 657.063 368.333 661.646 367.514C662.535 367.284 662.696 366.968 663.343 367.787C663.351 367.795 663.077 367.749 662.536 367.752C661.693 367.757 661.45 367.784 660.563 367.838C657.459 368.102 654.364 368.455 651.26 368.696C646.614 369.275 641.955 369.822 637.372 370.802C637.318 370.828 636.966 370.069 637.02 370.044L637.02 370.045Z" fill="#181818"/>
<path d="M609.925 187.048C614.973 205.253 609.273 217.054 609.957 223.35C610.642 229.645 613.127 234.832 614.712 240.574C612.087 233.353 607.542 225.403 606.836 218.91C606.13 212.418 614.338 192.729 611.932 170.98L609.925 187.048Z" fill="#181818"/>
<path d="M599.33 172.11C596.923 186.562 593.498 219.04 597.125 232.966L593.927 230.367C590.614 216.319 595.277 185.105 599.33 172.111L599.33 172.11Z" fill="#181818"/>
<path d="M635.633 283.231L623.978 285.969L623.001 287.235L624.347 287.499L637.014 285.365L635.633 283.231Z" fill="#181818"/>
<path d="M635.782 279.178L626.014 279.979L625.069 280.884L626.126 281.26L636.64 281.071L635.782 279.178Z" fill="#181818"/>
<path d="M639.462 289.848L630.886 292.178L629.185 291.488L630.983 291.191L638.503 288.92L639.462 289.848Z" fill="#181818"/>
<path d="M611.856 272.515C616.105 287.835 611.307 297.765 611.884 303.061C612.46 308.359 614.552 312.724 615.886 317.555C613.677 311.479 609.852 304.789 609.258 299.325C608.664 293.862 613.882 290.815 611.857 272.514L611.856 272.515Z" fill="#181818"/>
<path d="M236.54 333.204C236.54 334.745 238.2 335.193 240.307 335.193C242.414 335.193 244.171 334.745 244.171 333.204C244.171 331.663 242.463 330.414 240.355 330.414C238.248 330.414 236.54 331.663 236.54 333.204V333.204Z" fill="black" stroke="#131C06" stroke-width="0.494699"/>
<path d="M230.974 330.731C229.868 329.349 228.67 327.142 227.634 325.704C229.014 326.943 230.216 329.131 231.489 330.477L230.974 330.731Z" fill="black"/>
<path d="M230.995 331.42C229.873 330.189 228.984 327.939 226.65 327.231C229.078 327.601 230.109 329.888 231.444 331.061L230.995 331.42Z" fill="black"/>
<path d="M231.185 331.864C229.64 330.997 227.703 329.4 226.203 328.456C227.946 329.087 229.881 330.664 231.566 331.435L231.185 331.864Z" fill="black"/>
<path d="M226.228 332.809C226.228 334.437 227.888 334.911 229.996 334.911C232.103 334.911 233.86 334.437 233.86 332.809C233.86 331.181 232.151 329.862 230.044 329.862C227.937 329.862 226.228 331.181 226.228 332.809V332.809Z" fill="black" stroke="#131C06" stroke-width="0.508481"/>
<path d="M244.058 334.601L248.455 331.457L248.762 331.182L247.874 331.692L243.682 334.483L244.058 334.601Z" fill="black"/>
<path d="M241.853 334.588C243.231 333.477 248 329.367 249.322 328.186C247.708 329.099 242.938 333.188 241.405 334.229L241.853 334.588Z" fill="black"/>
<path d="M241.013 334.653L245.209 330.092L245.486 329.786L244.657 330.387L240.319 334.61L241.013 334.653Z" fill="black"/>
<path d="M241.16 334.219C241.284 332.452 242.361 327.137 242.396 325.364C241.965 327.169 241.1 332.582 240.818 334.414L241.16 334.219Z" fill="black"/>
<path d="M250.064 334.481L245.573 334.554L244.099 334.288L242.71 334.007L241.405 334.087L240.926 334.298L240.573 334.383L240.613 334.289L240.477 335.351L245.645 335.013L247.432 334.868L248.785 334.94L249.364 334.626L250.064 334.481Z" fill="black"/>
<path d="M240.425 334.483L244.095 328.155L244.283 327.769L243.667 328.566L240.077 334.444L240.425 334.483Z" fill="black"/>
<path d="M245.087 281.927C245.188 281.929 245.295 281.936 245.402 281.955C246.909 282.184 247.77 283.564 247.782 285.142C247.956 287.909 246.075 291.104 243.782 292.859C242.401 293.784 239.823 293.547 239.073 293.789C238.801 299.467 239.79 305.134 239.432 310.808C239.346 313.674 242.239 313.191 243.125 311.506C244.141 309.537 243.696 305.942 243.043 303.119C242.442 300.504 244.339 297.263 247.297 297.77C249.92 298.169 251.42 300.58 251.441 303.325C251.745 308.139 251.341 313.68 247.352 316.732C243.842 319.085 241.606 317.072 240.335 319.728C239.983 324.792 240.205 329.892 240.103 334.969L230.542 335.653C230.57 331.769 230.654 327.877 230.638 323.997C230.384 321.831 228.368 322.411 226.926 322.387C224.588 322.313 222.981 320.832 222.292 317.965C221.406 308.955 220.211 303.759 220.5 292.879C220.521 292.109 220.552 289.547 220.572 288.791C221.719 284.635 227.004 286.259 227.049 289.192C227.08 289.762 227.153 292.518 227.117 293.147C226.453 304.52 225.667 314.005 226.337 316.291C226.77 319.71 230.307 320.247 230.919 317.357C231.347 309.824 231.308 274.056 231.769 265.145C231.96 262.122 233.412 259.929 236.57 260.467C239.048 261.086 238.829 262.82 239.287 265.378C239.379 265.891 239.153 289.893 239.168 290.477C244.324 288.556 239.295 282.297 245.087 281.926V281.927Z" fill="black" stroke="#0A0A09" stroke-width="0.924501"/>
<path d="M239.06 275.388L240.938 273.944L241.254 273.953L241.126 274.192L239.214 275.866L239.06 275.388Z" fill="black"/>
<path d="M234.356 273.172L234.065 272.027L233.758 271.908L233.86 272.13L234.065 273.155L234.356 273.172Z" fill="black"/>
<path d="M233.159 274.075L232.58 273.038L232.058 272.77L232.247 272.998L232.674 273.895L233.159 274.075Z" fill="black"/>
<path d="M239.837 291.932L242.729 291.854L243.035 292.089L242.737 292.234L239.646 292.516L239.837 291.932Z" fill="black"/>
<path d="M239.543 290.994L241.875 290.578L242.151 290.732L241.927 290.885L239.459 291.489L239.543 290.994Z" fill="black"/>
<path d="M239.354 293.714L241.501 293.73L241.856 293.464L241.418 293.505L239.521 293.438L239.354 293.714Z" fill="black"/>
<path d="M231.983 279.32L230.427 279.167L230.5 278.789L232.32 278.857L231.983 279.32Z" fill="black"/>
<path d="M231.731 266.487L230.175 266.334L230.248 265.956L232.068 266.024L231.731 266.487Z" fill="black"/>
<path d="M247.985 298.867L249.278 296.881L249.579 296.784L249.537 297.052L248.289 299.267L247.985 298.867Z" fill="black"/>
<path d="M246.641 299.218L246.069 296.918L245.817 296.728L245.768 296.995L246.223 299.496L246.641 299.218Z" fill="black"/>
<path d="M244.394 301.011L242.117 300.357L241.827 300.481L242.033 300.657L244.426 301.513L244.394 301.011Z" fill="black"/>
<path d="M243.785 304.186C243.147 304.169 242.509 304.175 241.871 304.181C241.643 304.186 241.747 304.183 241.559 304.187C241.538 304.193 241.613 304.487 241.634 304.481C241.824 304.486 241.719 304.483 241.949 304.487C242.587 304.494 243.224 304.5 243.862 304.483C243.883 304.478 243.806 304.18 243.785 304.185V304.186Z" fill="black"/>
<path d="M231.877 325.936C231.223 325.92 230.568 325.921 229.914 325.934C229.751 325.939 229.589 325.943 229.427 325.94C229.268 325.938 229.109 325.938 228.95 325.938C228.929 325.944 229.005 326.237 229.025 326.232C229.184 326.232 229.343 326.232 229.501 326.23C229.665 326.227 229.828 326.231 229.991 326.236C230.646 326.249 231.3 326.25 231.954 326.235C231.976 326.229 231.899 325.93 231.878 325.935L231.877 325.936Z" fill="black"/>
<path d="M239.48 324.656C240.085 324.619 240.69 324.569 241.296 324.553C241.351 324.55 241.405 324.552 241.459 324.555C241.478 324.563 241.594 324.292 241.575 324.284C241.457 324.253 241.339 324.248 241.215 324.251C240.602 324.252 239.988 324.294 239.379 324.365C239.358 324.373 239.459 324.663 239.48 324.656L239.48 324.656Z" fill="black"/>
<path d="M234.713 329.297C234.63 329.286 234.548 329.276 234.466 329.266C234.444 329.258 234.34 329.557 234.361 329.564C234.444 329.571 234.527 329.578 234.61 329.585C234.631 329.592 234.733 329.304 234.713 329.297L234.713 329.297Z" fill="black"/>
<path d="M233.936 330.874C233.393 330.911 232.85 330.931 232.319 331.058C232.26 331.085 232.199 331.088 232.141 331.105C232.122 331.113 232.244 331.379 232.263 331.371C232.324 331.372 232.384 331.337 232.445 331.337C232.973 331.246 233.508 331.232 234.039 331.162C234.06 331.155 233.956 330.867 233.936 330.874H233.936Z" fill="black"/>
<path d="M233.348 332.83C232.852 332.957 232.326 333.053 231.871 333.298C231.854 333.311 232.033 333.556 232.05 333.543C232.508 333.349 233.002 333.249 233.477 333.108C233.496 333.099 233.367 332.821 233.348 332.83H233.348Z" fill="black"/>
<path d="M225.01 307.53C225.566 307.388 226.132 307.291 226.688 307.147C226.508 307.119 226.902 307.124 226.848 307.114C226.825 307.109 226.8 307.118 226.776 307.116C226.77 307.116 226.753 307.104 226.759 307.106C226.91 307.148 226.774 307.142 226.984 307.12C227.173 307.077 227.368 307.072 227.561 307.071C227.573 307.072 227.584 307.072 227.596 307.073C227.617 307.078 227.695 306.787 227.674 306.781C227.61 306.78 227.546 306.78 227.482 306.78C227.275 306.784 227.067 306.798 226.866 306.85C226.885 306.851 226.903 306.846 226.92 306.853C226.933 306.857 226.957 306.883 226.945 306.88C226.922 306.874 226.906 306.848 226.882 306.843C226.771 306.819 226.661 306.847 226.554 306.868C225.994 306.987 225.429 307.084 224.881 307.252C224.862 307.261 224.99 307.539 225.01 307.529L225.01 307.53Z" fill="black"/>
<path d="M247.985 315.019C248.469 315.466 248.963 315.91 249.513 316.286C249.619 316.351 249.729 316.408 249.838 316.467L249.764 316.086C249.229 315.717 248.758 315.276 248.263 314.862C248.248 314.842 247.971 314.999 247.985 315.019L247.985 315.019Z" fill="black"/>
<path d="M234.776 316.993C234.551 317.089 234.333 317.286 234.112 317.434C234.061 317.453 234.084 317.434 234.042 317.484C234.033 317.498 234.097 317.866 234.106 317.852C234.136 317.843 234.114 317.85 234.17 317.829C234.393 317.7 234.613 317.522 234.835 317.386C234.844 317.373 234.785 316.98 234.776 316.993L234.776 316.993Z" fill="black"/>
<path d="M243.68 312.336C243.222 311.881 242.779 311.383 242.23 311.034L242.005 310.968L243.356 312.624C243.377 312.647 243.7 312.359 243.68 312.336V312.336Z" fill="black"/>
<path d="M250.316 301.831C250.962 301.799 251.624 301.725 252.266 301.833L252.476 301.935L250.365 302.262C250.335 302.265 250.286 301.834 250.316 301.831V301.831Z" fill="black"/>
<path d="M239.06 322.799C239.705 322.767 240.367 322.694 241.009 322.801L241.22 322.903L239.109 323.23C239.078 323.234 239.029 322.803 239.06 322.8V322.799Z" fill="black"/>
<path d="M235.679 326.471C235.936 326.439 236.2 326.366 236.457 326.473L236.541 326.575L235.698 326.902C235.686 326.906 235.666 326.475 235.679 326.472L235.679 326.471Z" fill="black"/>
<path d="M235.952 263.502C236.332 263.872 236.856 264.018 237.328 264.379C237.801 264.739 238.183 265.327 238.253 266.507V266.516C238.494 271.276 237.124 296.047 236.327 299.82C235.713 303.792 236.003 311.461 237.495 315.12L237.506 315.13V315.149C240.395 323.775 236.958 328.249 236.177 334.33L235.869 334.292C237.582 326.524 238.215 320.809 237.207 315.217C237.207 315.213 237.208 315.211 237.207 315.207C235.295 310.699 235.029 305.428 235.561 299.791V299.781L235.572 299.772C235.937 297.847 236.874 285.877 237.888 276.566C238.555 270.45 237.841 265.269 237.137 264.618C236.754 264.208 236.414 264.079 235.953 263.501L235.952 263.502Z" fill="black"/>
<path d="M234.923 277.562C234.688 281.345 234.147 285.322 234.219 288.912C234.29 292.502 234.969 295.541 235.345 298.855C234.668 294.66 233.389 289.973 233.316 286.27C233.243 282.568 234.387 280.465 234.923 277.562V277.562Z" fill="black"/>
<path d="M234.23 263.555C234.464 267.338 235.005 271.315 234.934 274.905C234.863 278.495 234.183 281.533 233.808 284.848C234.484 280.653 235.763 275.965 235.836 272.263C235.91 268.561 234.765 266.458 234.23 263.555V263.555Z" fill="black"/>
<path d="M232.361 303.954C231.884 310.058 234.429 313.457 234.602 315.502C234.775 317.547 233.002 324.762 233.989 327.218C233.362 323.792 235.497 316.005 235.319 313.896C235.141 311.788 232.944 311.021 232.361 303.954L232.361 303.954Z" fill="black"/>
<path d="M248.636 313.638C249.236 313.822 249.845 314.001 250.492 314.107C250.614 314.121 250.739 314.129 250.863 314.138L250.689 313.867C250.059 313.761 249.474 313.578 248.871 313.423C248.853 313.413 248.617 313.628 248.636 313.638L248.636 313.638Z" fill="black"/>
<path d="M252.774 306.408C252.136 306.391 251.497 306.397 250.859 306.404C250.631 306.408 250.735 306.405 250.547 306.41C250.526 306.415 250.602 306.709 250.623 306.704C250.813 306.709 250.708 306.706 250.938 306.71C251.575 306.717 252.213 306.722 252.85 306.706C252.871 306.7 252.795 306.402 252.774 306.408V306.408Z" fill="black"/>
<path d="M250.421 307.145C251.067 307.113 251.729 307.04 252.37 307.147L252.581 307.249L250.47 307.576C250.44 307.58 250.391 307.149 250.421 307.146V307.145Z" fill="black"/>
<path d="M228.669 334.962C227.875 333.379 227.163 330.971 226.448 329.349C227.54 330.848 228.261 333.239 229.226 334.821L228.669 334.962Z" fill="black"/>
<path d="M228.558 334.727C227.435 333.496 226.547 331.246 224.213 330.538C226.641 330.907 227.671 333.195 229.006 334.368L228.558 334.727Z" fill="black"/>
<path d="M228.731 335.17C227.187 334.304 225.249 332.707 223.749 331.763C225.493 332.394 227.428 333.971 229.113 334.741L228.731 335.17Z" fill="black"/>
<path d="M228.916 334.908C228.55 333.175 228.473 330.665 228.194 328.915C228.869 330.642 228.959 333.137 229.49 334.913L228.916 334.908Z" fill="black"/>
<path d="M243.785 336.09C242.426 335.945 241.061 335.876 239.694 335.865C239.015 335.854 238.339 335.915 237.661 335.944C237.139 335.95 236.616 335.935 236.094 335.928C235.481 335.888 234.89 336.069 234.289 336.156C234.1 336.183 233.91 336.184 233.72 336.177C233.708 336.173 233.653 336.366 233.666 336.37C233.899 336.375 234.132 336.38 234.363 336.344C234.921 336.261 235.473 336.097 236.041 336.126C236.6 336.132 237.159 336.148 237.717 336.136C238.358 336.11 238.998 336.064 239.639 336.073C241.001 336.086 242.361 336.162 243.718 336.284C243.732 336.288 243.799 336.095 243.785 336.09L243.785 336.09Z" fill="black"/>
<path d="M235.301 337.865C236.656 337.862 238.014 337.929 239.364 337.781C239.583 337.724 239.872 337.749 240.051 337.581C240.112 337.524 240.118 337.434 240.188 337.395C240.669 337.386 241.153 337.323 241.629 337.247C242.317 337.171 242.978 336.971 243.651 336.824C243.891 336.818 244.062 336.7 244.236 336.554C244.244 336.543 244.098 336.412 244.089 336.423C243.934 336.556 243.78 336.635 243.568 336.642C242.896 336.786 242.235 336.974 241.551 337.055C241.201 337.11 240.851 337.146 240.499 337.187C240.383 337.2 240.266 337.196 240.153 337.221C240.113 337.23 240.077 337.252 240.039 337.268C239.997 337.313 239.963 337.395 239.918 337.434C239.758 337.574 239.476 337.519 239.294 337.582C237.983 337.708 236.667 337.644 235.352 337.667C235.337 337.663 235.286 337.862 235.301 337.865H235.301Z" fill="black"/>
<path d="M241.979 336.58C240.419 336.875 238.833 336.979 237.248 337.003C236.473 337.011 235.702 336.949 234.933 336.873C234.403 336.893 233.886 336.824 233.361 336.757C232.678 336.719 232.009 336.589 231.335 336.482C231.092 336.441 230.848 336.447 230.605 336.471C230.592 336.476 230.656 336.664 230.669 336.659C230.866 336.642 231.062 336.631 231.259 336.669C231.934 336.779 232.604 336.919 233.289 336.95C233.815 337.015 234.337 337.085 234.867 337.061C235.677 337.146 236.488 337.235 237.305 337.216C238.9 337.194 240.497 337.09 242.062 336.767C242.075 336.761 241.992 336.574 241.979 336.579L241.979 336.58Z" fill="black"/>
<path d="M235.511 335.739C236.811 335.795 238.105 335.683 239.397 335.55C240.064 335.465 240.732 335.489 241.4 335.522C242.211 335.52 243.011 335.657 243.814 335.747C244.447 335.779 245.114 335.877 245.736 335.715C246.415 335.456 247.129 335.359 247.844 335.253C248.889 335.141 249.921 334.932 250.972 334.87C251.024 334.871 251.075 334.872 251.127 334.873C251.14 334.877 251.194 334.683 251.18 334.679C251.09 334.678 251.001 334.676 250.912 334.674C249.855 334.729 248.815 334.935 247.765 335.055C247.047 335.165 246.332 335.278 245.648 335.534C245.074 335.668 244.466 335.579 243.884 335.551C243.077 335.462 242.274 335.32 241.459 335.326C240.749 335.292 240.037 335.265 239.328 335.351C238.075 335.47 236.822 335.574 235.562 335.54C235.547 335.537 235.497 335.735 235.511 335.739L235.511 335.739Z" fill="black"/>
<path d="M239.186 336.447C238.066 336.186 236.922 336.06 235.783 335.92C235.022 335.864 234.264 335.777 233.504 335.715C233.38 335.736 232.295 335.526 232.836 335.941C232.904 335.993 233.001 335.987 233.083 336.01C234.205 336.23 235.317 336.477 236.455 336.602C237.674 336.704 238.91 336.617 240.064 336.201C240.381 336.161 240.559 335.8 240.876 335.819C241.186 335.867 241.488 335.888 241.702 336.141C241.58 336.453 240.423 336.705 240.142 336.768C239.041 336.975 237.926 337.087 236.819 337.254C236.164 337.313 235.517 337.425 234.867 337.516C234.513 337.546 234.159 337.503 233.806 337.479C233.317 337.416 232.848 337.499 232.375 337.616C231.929 337.727 231.474 337.743 231.019 337.713C230.639 337.716 230.296 337.554 229.933 337.468C229.684 337.422 229.43 337.406 229.177 337.412C229.102 337.414 229.027 337.416 228.953 337.425C228.929 337.429 228.867 337.435 228.884 337.452C228.959 337.527 229.062 337.566 229.151 337.623C229.943 337.509 230.722 337.299 231.503 337.12C232.525 336.924 233.568 336.983 234.599 337.041C235.1 337.059 235.599 337.142 236.101 337.114C236.052 337.047 236.025 336.959 235.957 336.913C235.894 336.872 235.808 336.884 235.734 336.87C235.616 336.848 235.498 336.83 235.381 336.807C234.776 336.691 234.177 336.552 233.573 336.43C232.311 336.261 231.079 335.901 229.811 335.771C229.705 335.779 229.408 335.728 229.322 335.87C229.257 335.978 229.331 336.072 229.229 336.142C228.735 336.356 228.195 336.361 227.67 336.426C227.17 336.505 226.668 336.569 226.161 336.552C225.843 336.516 225.545 336.506 225.234 336.59C225.222 336.596 225.311 336.775 225.324 336.769C225.589 336.701 225.834 336.706 226.107 336.744C226.656 336.759 227.199 336.71 227.741 336.619C228.3 336.552 228.904 336.555 229.396 336.246C229.423 336.201 229.458 336.161 229.477 336.113C229.488 336.086 229.479 336.055 229.481 336.027C229.475 336.021 229.458 336.018 229.46 336.009C229.482 335.937 229.717 335.976 229.744 335.965C231.004 336.103 232.228 336.471 233.486 336.63C234.092 336.749 234.695 336.887 235.303 336.997C235.419 337.018 235.537 337.034 235.654 337.055C235.734 337.069 235.817 337.127 235.894 337.102C235.967 337.078 235.994 336.985 236.043 336.927C235.584 336.967 235.121 336.832 234.663 336.839C233.581 336.773 232.486 336.716 231.415 336.931C230.644 337.108 229.876 337.316 229.094 337.432C229.057 337.495 229.011 337.554 228.982 337.622C228.977 337.632 229.003 337.617 229.014 337.616C229.051 337.612 229.09 337.609 229.128 337.608C229.369 337.602 229.61 337.61 229.849 337.65C230.222 337.729 230.569 337.906 230.959 337.903C231.464 337.942 231.97 337.922 232.464 337.798C232.89 337.694 233.306 337.61 233.747 337.67C234.143 337.696 234.542 337.745 234.939 337.703C235.592 337.614 236.242 337.512 236.897 337.45C238.009 337.287 239.13 337.175 240.233 336.959C240.593 336.873 241.755 336.629 241.886 336.194C241.903 336.141 241.874 336.085 241.87 336.031C241.6 335.71 241.224 335.653 240.823 335.63C240.49 335.663 240.286 335.944 239.961 336.024C238.862 336.402 237.686 336.482 236.53 336.396C235.398 336.279 234.295 336.03 233.177 335.83C232.96 335.773 232.921 335.696 232.763 335.896C232.761 335.898 232.827 335.887 232.96 335.888C233.165 335.889 233.225 335.896 233.441 335.909C234.199 335.973 234.954 336.059 235.712 336.118C236.846 336.26 237.983 336.393 239.102 336.632C239.115 336.638 239.201 336.453 239.188 336.447L239.186 336.447Z" fill="black"/>
<path d="M232.503 285.964L229.611 285.885L229.305 286.121L229.603 286.265L232.694 286.548L232.503 285.964Z" fill="black"/>
<path d="M232.788 285.026L230.455 284.611L230.179 284.764L230.403 284.917L232.871 285.521L232.788 285.026Z" fill="black"/>
<path d="M232.99 287.746L230.842 287.762L230.488 287.496L230.926 287.537L232.823 287.47L232.99 287.746Z" fill="black"/>
<path d="M232.251 273.131L229.359 273.052L229.053 273.288L229.351 273.433L232.442 273.715L232.251 273.131Z" fill="black"/>
<path d="M232.536 272.193L230.204 271.778L229.927 271.931L230.151 272.084L232.62 272.688L232.536 272.193Z" fill="black"/>
<path d="M232.738 274.913L230.59 274.929L230.236 274.663L230.674 274.705L232.571 274.637L232.738 274.913Z" fill="black"/>
<path d="M221.398 288.601C220.909 288.42 220.448 288.175 219.968 287.974C219.91 287.942 219.806 287.898 219.777 287.888C219.644 287.799 219.499 287.73 219.357 287.655C219.341 287.642 219.153 287.874 219.169 287.888C219.301 287.964 219.442 288.024 219.573 288.1C219.695 288.184 219.66 288.124 219.796 288.228C220.276 288.446 220.74 288.706 221.245 288.867C221.264 288.878 221.417 288.612 221.398 288.601L221.398 288.601Z" fill="black"/>
<path d="M220.936 299.512C220.42 299.499 219.904 299.501 219.387 299.512C219.356 299.513 219.324 299.514 219.292 299.515C219.271 299.52 219.346 299.811 219.367 299.806C219.399 299.806 219.431 299.808 219.463 299.808C219.98 299.82 220.496 299.821 221.012 299.809C221.033 299.804 220.957 299.506 220.936 299.511V299.512Z" fill="black"/>
<path d="M228.16 301.732C227.479 301.902 226.84 302.218 226.148 302.343C225.843 302.302 226.197 302.375 226.051 302.32C226.026 302.306 225.819 302.662 225.845 302.677C225.991 302.746 226.156 302.76 226.316 302.741C227.027 302.615 227.692 302.327 228.376 302.108C228.403 302.093 228.187 301.717 228.16 301.732V301.732Z" fill="black"/>
<path d="M226.753 286.156C226.452 286.442 226.213 286.784 225.94 287.095C225.77 287.289 225.587 287.463 225.433 287.67C225.314 287.805 225.36 287.862 225.409 288.035C225.419 288.062 225.802 287.9 225.791 287.873C225.632 287.587 225.667 288.115 225.793 287.899C225.96 287.707 226.148 287.536 226.317 287.346C226.585 287.045 226.818 286.715 227.096 286.422C227.115 286.398 226.771 286.131 226.753 286.156L226.753 286.156Z" fill="black"/>
<path d="M223.561 286.826C223.495 286.183 223.467 285.517 223.264 284.899L223.131 284.706L223.127 286.843C223.129 286.874 223.561 286.856 223.56 286.826L223.561 286.826Z" fill="black"/>
<path d="M224.968 293.166C226.188 297.565 224.811 300.417 224.977 301.939C225.142 303.46 225.743 304.714 226.126 306.101C225.491 304.356 224.393 302.435 224.222 300.866C224.052 299.297 226.036 294.538 225.454 289.283L224.968 293.166Z" fill="black"/>
<path d="M222.7 290.796C222.131 293.558 221.767 299.548 222.39 303.281L222.187 303.146C223.393 306.408 223.348 314.303 223.114 317.836C223.684 315.07 224.032 309.068 223.405 305.336L223.627 305.486C222.422 302.224 222.467 294.329 222.7 290.796L222.7 290.796Z" fill="black"/>
<path d="M221.211 305.484L218.395 306.146L218.159 306.451L218.484 306.515L221.545 305.999L221.211 305.484Z" fill="black"/>
<path d="M221.247 304.504L218.887 304.698L218.658 304.916L218.914 305.007L221.455 304.962L221.247 304.504Z" fill="black"/>
<path d="M222.137 307.083L220.064 307.646L219.653 307.479L220.088 307.408L221.905 306.859L222.137 307.083Z" fill="black"/>
<path d="M236.393 261.339L237.53 259.26L237.823 259.141L237.802 259.411L236.726 261.714L236.393 261.339Z" fill="black"/>
<path d="M235.217 260.715L235.507 259.57L235.814 259.451L235.712 259.673L235.507 260.698L235.217 260.715Z" fill="black"/>
<path d="M238.136 261.853L238.933 260.982L239.26 261.022L239.065 261.169L238.4 261.976L238.136 261.853Z" fill="black"/>
<path d="M236.456 262.576L237.034 261.54L237.556 261.271L237.367 261.499L236.94 262.396L236.456 262.576Z" fill="black"/>
<path d="M234.104 261.931L232.605 260.096L232.296 260.032L232.366 260.294L233.845 262.361L234.104 261.931Z" fill="black"/>
<path d="M222.388 315.931L220.242 316.435L220.062 316.668L220.31 316.717L222.643 316.324L222.388 315.931Z" fill="black"/>
<path d="M222.416 315.185L220.617 315.332L220.443 315.499L220.638 315.568L222.574 315.533L222.416 315.185Z" fill="black"/>
<path d="M223.093 317.149L221.514 317.578L221.201 317.451L221.532 317.397L222.917 316.978L223.093 317.149Z" fill="black"/>
<path d="M287.845 333.189C287.845 334.715 286.202 335.159 284.115 335.159C282.029 335.159 280.289 334.715 280.289 333.189C280.289 331.664 281.981 330.427 284.067 330.427C286.154 330.427 287.845 331.664 287.845 333.189H287.845Z" fill="black" stroke="#131C06" stroke-width="0.489804"/>
<path d="M293.348 330.742C294.443 329.373 295.629 327.188 296.655 325.764C295.289 326.991 294.098 329.157 292.838 330.49L293.348 330.742Z" fill="black"/>
<path d="M293.326 331.423C294.438 330.204 295.318 327.976 297.629 327.274C295.225 327.641 294.205 329.905 292.883 331.067L293.326 331.423Z" fill="black"/>
<path d="M293.159 331.862C294.687 331.004 296.606 329.423 298.091 328.488C296.365 329.113 294.449 330.674 292.78 331.437L293.159 331.862Z" fill="black"/>
<path d="M300.362 334.021C300.362 335.633 298.718 336.102 296.632 336.102C294.545 336.102 292.806 335.633 292.806 334.021C292.806 332.41 294.497 331.103 296.584 331.103C298.67 331.103 300.362 332.41 300.362 334.021Z" fill="black" stroke="#131C06" stroke-width="0.503439"/>
<path d="M280.411 334.571L276.058 331.458L275.754 331.187L276.633 331.691L280.783 334.455L280.411 334.571Z" fill="black"/>
<path d="M282.595 334.561C281.23 333.46 276.509 329.391 275.2 328.222C276.798 329.126 281.52 333.175 283.039 334.205L282.595 334.561Z" fill="black"/>
<path d="M283.414 334.624L279.259 330.107L278.985 329.805L279.807 330.4L284.101 334.581L283.414 334.624Z" fill="black"/>
<path d="M283.267 334.193C283.144 332.444 282.078 327.182 282.043 325.427C282.47 327.213 283.327 332.573 283.605 334.387L283.267 334.193Z" fill="black"/>
<path d="M274.447 334.454L278.894 334.526L280.352 334.262L281.728 333.984L283.02 334.063L283.494 334.273L283.843 334.356L283.804 334.264L283.939 335.315L278.822 334.98L277.053 334.836L275.714 334.908L275.14 334.597L274.447 334.454Z" fill="black"/>
<path d="M284.002 334.456L280.368 328.191L280.182 327.808L280.792 328.597L284.347 334.417L284.002 334.456Z" fill="black"/>
<path d="M288.769 284.423C288.576 284.431 288.39 284.458 288.195 284.491C284.938 285.305 283.511 287.883 283.722 292.016C284.227 295.007 284.582 294.8 284.981 300.635C285.066 303.472 282.22 302.987 281.342 301.319C280.337 299.369 280.765 295.809 281.411 293.015C282.006 290.425 280.14 287.218 277.212 287.72C274.615 288.115 273.115 290.502 273.095 293.22C272.794 297.986 273.208 303.468 277.157 306.491C280.632 308.82 282.833 306.83 284.092 309.459C284.257 311.843 284.29 316.567 284.296 321.421C283.971 323.295 282.306 322.912 281.646 321.544C280.833 319.857 280.827 316.864 281.426 315.137C282.552 311.645 280.589 310.869 278.527 310.91C278.389 310.912 278.26 310.94 278.116 310.964C276.07 311.275 274.891 313.146 274.875 315.288C274.638 319.043 274.963 323.372 278.075 325.754C280.237 327.202 283.255 326.532 284.297 327.204C284.295 330.377 284.29 333.29 284.324 334.947L293.803 335.618C293.775 331.772 293.677 327.926 293.693 324.085C294.099 320.263 297.313 320.884 298.959 321.239C301.849 321.622 303.712 319.102 304.621 316.916C305.788 312.664 306.411 306.599 303.199 302.728C301.855 300.791 298.366 300.3 296.593 302.988C294.961 306.055 297.511 309.471 297.523 312.729C297.733 316.881 293.588 317.849 292.982 314.987C292.557 307.529 295.444 298.184 294.391 289.703C294.213 286.897 291.663 284.298 288.769 284.422L288.769 284.423Z" fill="black" stroke="#0A0A09" stroke-width="0.915341"/>
<path d="M285.346 286.423L283.486 284.993L283.174 285.002L283.3 285.239L285.194 286.896L285.346 286.423Z" fill="black"/>
<path d="M290.008 284.227L290.296 283.094L290.6 282.976L290.499 283.196L290.296 284.21L290.008 284.227Z" fill="black"/>
<path d="M291.184 285.12L291.757 284.094L292.274 283.829L292.087 284.054L291.664 284.941L291.184 285.12Z" fill="black"/>
<path d="M284.577 292.326L281.713 292.248L281.41 292.481L281.705 292.625L284.766 292.904L284.577 292.326Z" fill="black"/>
<path d="M284.859 291.397L282.55 290.987L282.276 291.138L282.498 291.29L284.942 291.888L284.859 291.397Z" fill="black"/>
<path d="M285.059 294.091L282.933 294.106L282.581 293.843L283.015 293.884L284.894 293.818L285.059 294.091Z" fill="black"/>
<path d="M294.314 289.292L295.853 289.14L295.781 288.766L293.979 288.833L294.314 289.292Z" fill="black"/>
<path d="M275.959 288.347L274.679 286.381L274.381 286.285L274.422 286.55L275.658 288.743L275.959 288.347Z" fill="black"/>
<path d="M277.303 288.693L277.869 286.417L278.119 286.229L278.167 286.493L277.716 288.969L277.303 288.693Z" fill="black"/>
<path d="M279.529 290.47L281.783 289.823L282.071 289.945L281.866 290.119L279.497 290.967L279.529 290.47Z" fill="black"/>
<path d="M280.117 293.611C280.748 293.595 281.38 293.6 282.012 293.607C282.238 293.611 282.135 293.608 282.321 293.613C282.342 293.618 282.267 293.909 282.246 293.904C282.058 293.909 282.162 293.906 281.934 293.91C281.303 293.916 280.672 293.922 280.041 293.906C280.02 293.9 280.096 293.605 280.117 293.611L280.117 293.611Z" fill="black"/>
<path d="M302.924 304.041C303.408 303.861 303.865 303.619 304.34 303.42C304.397 303.388 304.501 303.345 304.528 303.335C304.661 303.247 304.804 303.178 304.944 303.104C304.961 303.091 305.147 303.321 305.13 303.335C305 303.41 304.861 303.47 304.73 303.544C304.61 303.628 304.645 303.569 304.51 303.672C304.034 303.887 303.576 304.145 303.075 304.304C303.056 304.315 302.905 304.051 302.924 304.041H302.924Z" fill="black"/>
<path d="M292.465 325.992C293.113 325.977 293.762 325.978 294.41 325.991C294.571 325.996 294.731 326 294.892 325.997C295.049 325.995 295.207 325.995 295.364 325.995C295.385 326.001 295.31 326.291 295.289 326.286C295.132 326.286 294.975 326.286 294.818 326.284C294.656 326.281 294.495 326.285 294.333 326.29C293.685 326.303 293.037 326.304 292.389 326.288C292.368 326.283 292.445 325.986 292.465 325.992V325.992Z" fill="black"/>
<path d="M275.581 316.426C274.981 316.389 274.383 316.34 273.782 316.323C273.728 316.321 273.675 316.323 273.621 316.325C273.602 316.334 273.487 316.065 273.506 316.057C273.623 316.027 273.74 316.022 273.862 316.025C274.47 316.025 275.077 316.067 275.681 316.138C275.702 316.145 275.601 316.433 275.581 316.426V316.426Z" fill="black"/>
<path d="M277.597 313.47C277.107 316.41 276.737 319.338 277.475 322.171L276.824 321.642C276.151 318.785 276.772 316.113 277.597 313.47H277.597Z" fill="black"/>
<path d="M277.303 317.422C276.703 317.385 276.105 317.335 275.504 317.319C275.451 317.317 275.397 317.319 275.343 317.321C275.325 317.329 275.209 317.061 275.228 317.053C275.345 317.022 275.462 317.017 275.584 317.021C276.192 317.021 276.799 317.063 277.403 317.134C277.424 317.141 277.323 317.428 277.303 317.421V317.422Z" fill="black"/>
<path d="M289.651 329.32C289.733 329.31 289.814 329.299 289.896 329.289C289.917 329.282 290.021 329.577 290 329.585C289.918 329.592 289.835 329.598 289.753 329.605C289.732 329.612 289.631 329.327 289.651 329.32L289.651 329.32Z" fill="black"/>
<path d="M290.428 330.883C290.965 330.919 291.503 330.939 292.029 331.064C292.088 331.091 292.147 331.095 292.205 331.111C292.224 331.119 292.103 331.383 292.085 331.374C292.024 331.375 291.965 331.341 291.904 331.341C291.382 331.251 290.852 331.236 290.326 331.168C290.305 331.16 290.408 330.875 290.428 330.883L290.428 330.883Z" fill="black"/>
<path d="M291.016 332.817C291.507 332.944 292.028 333.039 292.478 333.281C292.495 333.294 292.318 333.536 292.301 333.524C291.847 333.332 291.359 333.232 290.889 333.092C290.87 333.083 290.997 332.808 291.016 332.817V332.817Z" fill="black"/>
<path d="M297.485 308.536C296.934 308.395 296.374 308.3 295.824 308.157C296.001 308.129 295.612 308.134 295.665 308.124C295.688 308.119 295.712 308.129 295.736 308.127C295.742 308.126 295.759 308.115 295.753 308.116C295.604 308.158 295.738 308.152 295.53 308.13C295.343 308.088 295.151 308.083 294.96 308.082C294.947 308.082 294.936 308.083 294.924 308.083C294.903 308.089 294.826 307.8 294.847 307.794C294.91 307.794 294.974 307.794 295.037 307.793C295.242 307.798 295.448 307.811 295.647 307.863C295.628 307.864 295.61 307.859 295.593 307.865C295.583 307.87 295.557 307.895 295.568 307.892C295.592 307.886 295.607 307.861 295.631 307.855C295.741 307.832 295.85 307.86 295.956 307.881C296.51 307.998 297.07 308.094 297.613 308.261C297.632 308.27 297.504 308.545 297.485 308.536L297.485 308.536Z" fill="black"/>
<path d="M304.772 309.049C305.283 309.037 305.794 309.038 306.305 309.049C306.337 309.05 306.368 309.051 306.4 309.052C306.421 309.057 306.346 309.345 306.326 309.34C306.294 309.34 306.262 309.342 306.23 309.342C305.719 309.353 305.208 309.355 304.696 309.343C304.675 309.338 304.751 309.043 304.772 309.048V309.049Z" fill="black"/>
<path d="M275.959 304.337C275.479 304.78 274.991 305.22 274.446 305.591C274.341 305.656 274.232 305.713 274.124 305.771L274.198 305.394C274.728 305.028 275.194 304.592 275.684 304.181C275.699 304.162 275.973 304.318 275.959 304.337L275.959 304.337Z" fill="black"/>
<path d="M289.588 317.138C289.811 317.233 290.026 317.428 290.245 317.575C290.296 317.594 290.273 317.575 290.315 317.624C290.323 317.638 290.26 318.002 290.251 317.988C290.221 317.98 290.243 317.986 290.188 317.966C289.967 317.838 289.75 317.661 289.529 317.527C289.521 317.514 289.579 317.125 289.588 317.138L289.588 317.138Z" fill="black"/>
<path d="M296.078 311.758C296.752 311.926 297.385 312.24 298.07 312.363C298.372 312.323 298.022 312.395 298.166 312.341C298.191 312.326 298.395 312.679 298.371 312.694C298.225 312.762 298.062 312.777 297.904 312.757C297.2 312.633 296.541 312.348 295.864 312.131C295.838 312.116 296.051 311.743 296.078 311.758L296.078 311.758Z" fill="black"/>
<path d="M297.17 300.81C297.468 301.093 297.705 301.432 297.975 301.74C298.143 301.932 298.324 302.104 298.477 302.309C298.594 302.443 298.549 302.5 298.501 302.671C298.49 302.697 298.111 302.536 298.123 302.51C298.28 302.227 298.245 302.749 298.121 302.536C297.955 302.345 297.769 302.177 297.601 301.988C297.336 301.69 297.105 301.363 296.83 301.074C296.811 301.05 297.152 300.786 297.17 300.81L297.17 300.81Z" fill="black"/>
<path d="M301.37 301.85C301.695 301.298 301.994 300.711 302.432 300.238L302.631 300.119L301.753 302.044C301.738 302.071 301.356 301.877 301.37 301.85H301.37Z" fill="black"/>
<path d="M280.222 301.684C280.676 301.233 281.114 300.74 281.658 300.394L281.88 300.33L280.543 301.968C280.522 301.991 280.202 301.706 280.222 301.684V301.684Z" fill="black"/>
<path d="M273.649 291.281C273.01 291.25 272.354 291.177 271.719 291.283L271.51 291.384L273.6 291.708C273.63 291.711 273.679 291.285 273.649 291.282L273.649 291.281Z" fill="black"/>
<path d="M275.98 314.586C275.341 314.554 274.685 314.481 274.05 314.588L273.841 314.689L275.931 315.013C275.962 315.016 276.01 314.59 275.98 314.586L275.98 314.586Z" fill="black"/>
<path d="M277.702 315.582C277.063 315.55 276.408 315.477 275.772 315.584L275.563 315.684L277.653 316.008C277.684 316.012 277.732 315.585 277.702 315.582L277.702 315.582Z" fill="black"/>
<path d="M288.706 326.522C288.451 326.49 288.19 326.417 287.936 326.523L287.853 326.624L288.687 326.948C288.7 326.951 288.718 326.525 288.706 326.521L288.706 326.522Z" fill="black"/>
<path d="M288.832 285.406C288.456 285.771 287.937 285.916 287.469 286.273C287.002 286.63 286.624 287.213 286.554 288.38V288.39C286.315 293.103 287.275 296.399 288.063 300.135C288.671 304.068 288.384 311.662 286.907 315.284L286.897 315.294V315.313C284.035 323.853 287.439 328.283 288.212 334.304L288.517 334.266C286.821 326.575 286.194 320.916 287.192 315.38C287.193 315.376 287.191 315.374 287.192 315.37C289.085 310.907 289.349 305.688 288.822 300.107V300.098L288.811 300.088C288.215 296.942 285.891 288.144 287.658 286.512C288.038 286.106 288.375 285.978 288.83 285.406L288.832 285.406Z" fill="black"/>
<path d="M290.722 286.574C291.207 288.671 292.005 290.84 292.176 292.865C292.347 294.889 291.883 296.676 291.737 298.581C292.12 296.146 293.063 293.363 292.887 291.275C292.71 289.188 291.444 288.141 290.722 286.574V286.574Z" fill="black"/>
<path d="M291.982 304.23C292.454 310.273 289.934 313.638 289.763 315.663C289.592 317.688 291.348 324.831 290.37 327.263C290.991 323.871 288.877 316.161 289.053 314.073C289.23 311.985 291.404 311.226 291.982 304.23H291.982Z" fill="black"/>
<path d="M299.501 304.045C298.293 308.401 299.657 311.224 299.492 312.731C299.329 314.237 298.734 315.478 298.355 316.852C298.983 315.124 300.07 313.222 300.239 311.668C300.408 310.115 298.924 309.249 299.5 304.045H299.501Z" fill="black"/>
<path d="M302.42 304.797C302.996 308.255 303.431 311.701 302.563 315.033L303.329 314.411C304.121 311.05 303.39 307.906 302.42 304.797V304.797Z" fill="black"/>
<path d="M275.329 302.971C274.735 303.153 274.132 303.33 273.491 303.435C273.37 303.45 273.247 303.457 273.124 303.466L273.296 303.198C273.92 303.093 274.5 302.911 275.096 302.758C275.115 302.748 275.348 302.961 275.329 302.971V302.971Z" fill="black"/>
<path d="M271.233 295.812C271.865 295.796 272.497 295.802 273.129 295.808C273.355 295.812 273.252 295.81 273.438 295.814C273.459 295.82 273.383 296.11 273.363 296.105C273.175 296.11 273.279 296.107 273.051 296.111C272.42 296.117 271.789 296.123 271.158 296.107C271.137 296.102 271.212 295.807 271.233 295.812L271.233 295.812Z" fill="black"/>
<path d="M273.565 296.543C272.926 296.512 272.27 296.439 271.635 296.545L271.426 296.646L273.516 296.97C273.547 296.974 273.595 296.547 273.565 296.544L273.565 296.543Z" fill="black"/>
<path d="M298.303 336.059C299.09 334.492 299.795 332.107 300.503 330.501C299.421 331.986 298.708 334.352 297.752 335.919L298.303 336.059Z" fill="black"/>
<path d="M298.414 335.826C299.525 334.607 300.405 332.379 302.716 331.678C300.312 332.044 299.292 334.309 297.97 335.47L298.414 335.826Z" fill="black"/>
<path d="M298.242 336.265C299.771 335.407 301.69 333.826 303.175 332.891C301.448 333.515 299.533 335.077 297.864 335.84L298.242 336.265Z" fill="black"/>
<path d="M298.059 336.005C298.422 334.29 298.498 331.804 298.774 330.071C298.105 331.782 298.017 334.252 297.491 336.01L298.059 336.005Z" fill="black"/>
<path d="M280.663 336.046C282.009 335.902 283.36 335.834 284.713 335.823C285.385 335.812 286.055 335.872 286.726 335.902C287.244 335.907 287.761 335.893 288.278 335.886C288.885 335.846 289.47 336.025 290.065 336.112C290.251 336.138 290.44 336.139 290.628 336.132C290.64 336.128 290.695 336.319 290.682 336.323C290.451 336.328 290.221 336.333 289.991 336.298C289.439 336.216 288.893 336.053 288.33 336.081C287.777 336.087 287.224 336.103 286.67 336.092C286.036 336.066 285.403 336.02 284.768 336.029C283.419 336.042 282.073 336.117 280.73 336.238C280.717 336.243 280.649 336.051 280.663 336.046L280.663 336.046Z" fill="black"/>
<path d="M289.063 337.804C287.721 337.802 286.377 337.868 285.04 337.721C284.824 337.665 284.538 337.689 284.36 337.522C284.3 337.466 284.294 337.378 284.225 337.338C283.749 337.33 283.269 337.268 282.798 337.192C282.117 337.117 281.462 336.919 280.796 336.774C280.558 336.768 280.389 336.651 280.217 336.506C280.208 336.495 280.353 336.366 280.362 336.376C280.515 336.509 280.668 336.587 280.878 336.593C281.543 336.736 282.198 336.921 282.875 337.002C283.222 337.056 283.568 337.092 283.917 337.133C284.031 337.146 284.147 337.141 284.259 337.167C284.299 337.176 284.335 337.198 284.372 337.213C284.414 337.258 284.447 337.339 284.491 337.378C284.65 337.516 284.93 337.462 285.109 337.524C286.408 337.649 287.71 337.585 289.013 337.608C289.028 337.605 289.077 337.801 289.064 337.804L289.063 337.804Z" fill="black"/>
<path d="M282.469 336.531C284.014 336.823 285.584 336.926 287.153 336.95C287.92 336.959 288.684 336.897 289.445 336.822C289.97 336.842 290.482 336.773 291.001 336.706C291.677 336.67 292.34 336.541 293.008 336.435C293.248 336.394 293.489 336.4 293.73 336.424C293.743 336.428 293.68 336.615 293.667 336.61C293.471 336.594 293.277 336.583 293.083 336.62C292.414 336.729 291.751 336.868 291.072 336.898C290.552 336.963 290.036 337.032 289.511 337.008C288.708 337.092 287.905 337.181 287.096 337.161C285.517 337.14 283.936 337.037 282.387 336.717C282.374 336.711 282.456 336.526 282.469 336.531V336.531Z" fill="black"/>
<path d="M288.874 335.699C287.587 335.755 286.305 335.643 285.026 335.512C284.366 335.428 283.705 335.452 283.043 335.485C282.24 335.483 281.449 335.618 280.653 335.707C280.026 335.739 279.366 335.836 278.75 335.675C278.078 335.419 277.371 335.323 276.663 335.218C275.629 335.107 274.606 334.9 273.566 334.839C273.515 334.84 273.464 334.841 273.413 334.842C273.4 334.846 273.347 334.654 273.36 334.65C273.449 334.649 273.537 334.647 273.625 334.645C274.672 334.699 275.701 334.903 276.741 335.022C277.452 335.131 278.16 335.243 278.838 335.496C279.406 335.629 280.008 335.54 280.584 335.513C281.383 335.425 282.178 335.284 282.985 335.29C283.688 335.257 284.393 335.229 285.095 335.315C286.335 335.432 287.576 335.536 288.824 335.502C288.839 335.499 288.888 335.695 288.874 335.699L288.874 335.699Z" fill="black"/>
<path d="M285.22 336.401C286.328 336.142 287.461 336.018 288.589 335.879C289.342 335.824 290.093 335.737 290.846 335.676C290.968 335.697 292.043 335.489 291.507 335.9C291.44 335.951 291.344 335.945 291.263 335.968C290.151 336.186 289.051 336.43 287.924 336.554C286.717 336.655 285.493 336.569 284.35 336.157C284.037 336.118 283.861 335.761 283.547 335.779C283.24 335.827 282.941 335.848 282.729 336.098C282.85 336.406 283.995 336.656 284.274 336.719C285.363 336.923 286.467 337.035 287.563 337.199C288.212 337.258 288.852 337.369 289.496 337.459C289.846 337.489 290.197 337.446 290.546 337.422C291.031 337.36 291.495 337.442 291.964 337.558C292.405 337.668 292.855 337.683 293.306 337.654C293.683 337.657 294.022 337.497 294.381 337.411C294.628 337.367 294.879 337.351 295.13 337.356C295.204 337.359 295.278 337.36 295.351 337.37C295.375 337.373 295.436 337.379 295.419 337.396C295.345 337.47 295.243 337.509 295.156 337.566C294.371 337.453 293.6 337.244 292.827 337.067C291.815 336.873 290.783 336.931 289.761 336.989C289.266 337.007 288.771 337.089 288.275 337.061C288.322 336.995 288.349 336.908 288.417 336.863C288.48 336.821 288.564 336.833 288.638 336.82C288.754 336.798 288.871 336.78 288.987 336.757C289.586 336.643 290.179 336.505 290.777 336.384C292.027 336.216 293.246 335.86 294.502 335.732C294.607 335.739 294.901 335.689 294.986 335.829C295.05 335.936 294.977 336.03 295.078 336.098C295.566 336.311 296.101 336.316 296.621 336.38C297.116 336.459 297.613 336.522 298.115 336.504C298.43 336.469 298.726 336.46 299.033 336.543C299.046 336.549 298.957 336.725 298.944 336.719C298.682 336.653 298.439 336.657 298.169 336.695C297.626 336.709 297.087 336.661 296.551 336.571C295.997 336.505 295.4 336.508 294.912 336.202C294.886 336.158 294.851 336.118 294.832 336.07C294.822 336.043 294.83 336.013 294.828 335.985C294.835 335.979 294.852 335.976 294.849 335.968C294.827 335.896 294.595 335.935 294.569 335.924C293.32 336.06 292.109 336.425 290.863 336.582C290.263 336.7 289.666 336.837 289.065 336.945C288.949 336.966 288.832 336.982 288.717 337.002C288.637 337.017 288.556 337.074 288.479 337.049C288.407 337.025 288.38 336.933 288.331 336.876C288.786 336.915 289.244 336.782 289.698 336.789C290.77 336.724 291.854 336.667 292.914 336.88C293.677 337.055 294.438 337.261 295.211 337.376C295.249 337.438 295.294 337.497 295.323 337.564C295.327 337.574 295.302 337.559 295.291 337.558C295.254 337.554 295.216 337.551 295.178 337.55C294.94 337.545 294.7 337.552 294.464 337.592C294.095 337.67 293.751 337.846 293.365 337.843C292.865 337.881 292.364 337.861 291.875 337.738C291.453 337.635 291.042 337.552 290.605 337.611C290.212 337.637 289.817 337.686 289.424 337.644C288.778 337.556 288.135 337.456 287.486 337.394C286.385 337.233 285.275 337.122 284.183 336.908C283.827 336.823 282.676 336.58 282.546 336.15C282.531 336.098 282.559 336.042 282.563 335.989C282.829 335.672 283.202 335.615 283.599 335.592C283.929 335.625 284.131 335.903 284.452 335.982C285.541 336.357 286.705 336.435 287.849 336.351C288.97 336.234 290.062 335.988 291.17 335.79C291.384 335.734 291.423 335.658 291.58 335.856C291.582 335.858 291.515 335.847 291.385 335.847C291.181 335.848 291.122 335.855 290.908 335.868C290.158 335.932 289.41 336.017 288.659 336.075C287.537 336.215 286.411 336.347 285.303 336.584C285.29 336.59 285.205 336.407 285.218 336.401L285.22 336.401Z" fill="black"/>
<path d="M278.668 292.174C279.888 296.574 278.51 299.426 278.676 300.947C278.842 302.468 279.442 303.722 279.825 305.11C279.191 303.365 278.093 301.443 277.922 299.874C277.751 298.305 279.735 293.547 279.154 288.291L278.668 292.174Z" fill="black"/>
<path d="M276.106 288.565C275.524 292.058 274.696 299.907 275.573 303.272L274.8 302.644C273.999 299.249 275.126 291.706 276.106 288.565V288.565Z" fill="black"/>
<path d="M284.887 315.42L282.07 316.082L281.834 316.387L282.159 316.451L285.22 315.935L284.887 315.42Z" fill="black"/>
<path d="M284.923 314.44L282.562 314.634L282.334 314.853L282.589 314.944L285.13 314.898L284.923 314.44Z" fill="black"/>
<path d="M285.812 317.019L283.739 317.582L283.328 317.415L283.763 317.344L285.58 316.795L285.812 317.019Z" fill="black"/>
<path d="M279.151 312.832C280.178 316.534 279.018 318.934 279.157 320.214C279.296 321.495 279.802 322.55 280.124 323.717C279.59 322.249 278.666 320.632 278.522 319.311C278.379 317.991 279.64 317.255 279.15 312.832H279.151Z" fill="black"/>
<path d="M786.236 340.998C786.236 343.125 783.943 343.745 781.034 343.745C778.124 343.745 775.698 343.125 775.698 340.998C775.698 338.87 778.057 337.146 780.967 337.146C783.877 337.146 786.236 338.87 786.236 340.998V340.998Z" fill="black" stroke="#131C06" stroke-width="0.683075"/>
<path d="M793.891 337.584C795.419 335.675 797.073 332.627 798.504 330.642C796.598 332.352 794.938 335.373 793.18 337.233L793.891 337.584Z" fill="black"/>
<path d="M793.862 338.535C795.412 336.835 796.639 333.728 799.862 332.75C796.509 333.261 795.086 336.42 793.243 338.039L793.862 338.535Z" fill="black"/>
<path d="M793.63 339.147C795.762 337.951 798.438 335.746 800.509 334.442C798.101 335.313 795.429 337.491 793.102 338.555L793.63 339.147Z" fill="black"/>
<path d="M803.663 342.161C803.663 344.408 801.371 345.063 798.461 345.063C795.552 345.063 793.126 344.408 793.126 342.161C793.126 339.913 795.485 338.092 798.395 338.092C801.305 338.092 803.663 339.914 803.663 342.161V342.161Z" fill="black" stroke="#131C06" stroke-width="0.702105"/>
<path d="M775.854 342.927L769.784 338.585L769.359 338.206L770.585 338.91L776.373 342.764L775.854 342.927Z" fill="black"/>
<path d="M778.899 342.912C776.996 341.377 770.411 335.703 768.586 334.072C770.815 335.332 777.401 340.979 779.518 342.416L778.899 342.912Z" fill="black"/>
<path d="M780.03 343.002L774.236 336.703L773.854 336.281L774.999 337.111L780.988 342.942L780.03 343.002Z" fill="black"/>
<path d="M779.827 342.399C779.656 339.959 778.169 332.62 778.121 330.173C778.715 332.664 779.91 340.139 780.299 342.668L779.827 342.399Z" fill="black"/>
<path d="M767.532 342.761L773.734 342.861L775.768 342.494L777.686 342.106L779.488 342.217L780.15 342.509L780.637 342.625L780.582 342.497L780.77 343.962L773.634 343.495L771.167 343.295L769.299 343.395L768.499 342.961L767.532 342.761Z" fill="black"/>
<path d="M780.842 342.764L775.774 334.027L775.515 333.493L776.366 334.593L781.322 342.71L780.842 342.764Z" fill="black"/>
<path d="M781.335 343.443C781.194 336.432 781.487 329.389 781.001 322.398C779.246 318.731 776.17 321.497 771.323 318.249C765.816 314.034 765.251 306.398 765.67 299.75C765.699 295.96 767.782 292.626 771.404 292.076C775.488 291.375 778.096 295.846 777.267 299.457C776.366 303.355 775.758 308.32 777.16 311.039C778.384 313.365 782.368 314.033 782.249 310.076C781.692 301.244 780.785 292.423 780.488 283.581C780.194 277.818 782.178 274.21 786.72 273.076C791.08 272.332 795.107 276.186 795.371 280.361C796.84 292.188 792.816 305.211 793.408 315.611C794.253 319.602 800.03 318.261 799.736 312.47C799.719 307.926 796.153 303.16 798.429 298.884C800.902 295.134 805.771 295.809 807.645 298.51C812.125 303.909 811.255 312.362 809.628 318.292C808.36 321.341 805.769 324.859 801.739 324.325C799.443 323.831 794.956 322.962 794.39 328.293C794.367 333.651 794.502 339.022 794.54 344.385C790.139 344.071 785.737 343.756 781.336 343.442L781.335 343.443Z" fill="black" stroke="#0A0A09" stroke-width="1.27654"/>
<path d="M782.727 275.776L780.133 273.783L779.697 273.795L779.874 274.125L782.515 276.437L782.727 275.776Z" fill="black"/>
<path d="M789.222 272.719L789.623 271.139L790.048 270.974L789.906 271.28L789.623 272.695L789.222 272.719Z" fill="black"/>
<path d="M790.875 273.963L791.674 272.532L792.394 272.162L792.133 272.476L791.544 273.714L790.875 273.963Z" fill="black"/>
<path d="M781.683 284.011L777.689 283.902L777.267 284.227L777.678 284.427L781.947 284.817L781.683 284.011Z" fill="black"/>
<path d="M782.06 282.717L778.84 282.144L778.458 282.356L778.767 282.567L782.176 283.401L782.06 282.717Z" fill="black"/>
<path d="M782.35 286.473L779.384 286.495L778.895 286.128L779.5 286.185L782.12 286.092L782.35 286.473Z" fill="black"/>
<path d="M795.225 279.779L797.372 279.567L797.272 279.045L794.758 279.139L795.225 279.779Z" fill="black"/>
<path d="M770.432 293.585L768.647 290.844L768.232 290.71L768.289 291.08L770.012 294.138L770.432 293.585Z" fill="black"/>
<path d="M772.288 294.07L773.077 290.895L773.426 290.633L773.493 291.001L772.864 294.454L772.288 294.07Z" fill="black"/>
<path d="M775.39 296.55L778.534 295.647L778.935 295.818L778.65 296.06L775.346 297.242L775.39 296.55Z" fill="black"/>
<path d="M776.231 300.93C777.112 300.907 777.994 300.914 778.875 300.924C779.189 300.93 779.046 300.926 779.305 300.932C779.334 300.94 779.23 301.345 779.201 301.338C778.939 301.345 779.084 301.341 778.766 301.346C777.886 301.356 777.006 301.363 776.126 301.34C776.097 301.333 776.202 300.922 776.231 300.929V300.93Z" fill="black"/>
<path d="M807.259 300.349C807.934 300.1 808.571 299.761 809.234 299.484C809.314 299.44 809.458 299.379 809.497 299.365C809.681 299.243 809.881 299.147 810.077 299.044C810.1 299.025 810.359 299.346 810.336 299.365C810.155 299.471 809.96 299.554 809.779 299.657C809.61 299.773 809.659 299.691 809.472 299.835C808.808 300.136 808.168 300.495 807.47 300.716C807.444 300.732 807.233 300.364 807.259 300.349H807.259Z" fill="black"/>
<path d="M792.673 330.962C793.577 330.94 794.481 330.942 795.385 330.96C795.609 330.967 795.833 330.972 796.057 330.968C796.276 330.966 796.496 330.966 796.715 330.966C796.744 330.973 796.64 331.378 796.611 331.371C796.392 331.371 796.173 331.371 795.954 331.368C795.729 331.364 795.503 331.37 795.277 331.377C794.374 331.395 793.47 331.397 792.567 331.375C792.538 331.367 792.644 330.953 792.673 330.961L792.673 330.962Z" fill="black"/>
<path d="M782.176 329.198C781.34 329.147 780.505 329.078 779.668 329.055C779.593 329.052 779.518 329.055 779.443 329.058C779.417 329.069 779.257 328.695 779.283 328.684C779.446 328.641 779.609 328.634 779.78 328.639C780.627 328.639 781.474 328.698 782.316 328.797C782.345 328.806 782.204 329.208 782.176 329.198L782.176 329.198Z" fill="black"/>
<path d="M788.758 335.603C788.872 335.589 788.986 335.574 789.099 335.56C789.128 335.55 789.273 335.962 789.244 335.972C789.13 335.982 789.015 335.991 788.901 336C788.872 336.01 788.73 335.613 788.758 335.603V335.603Z" fill="black"/>
<path d="M789.831 337.784C790.58 337.835 791.33 337.862 792.063 338.037C792.146 338.075 792.229 338.079 792.309 338.102C792.335 338.114 792.167 338.481 792.141 338.469C792.057 338.471 791.974 338.423 791.89 338.423C791.161 338.297 790.421 338.277 789.689 338.181C789.66 338.171 789.803 337.774 789.831 337.784H789.831Z" fill="black"/>
<path d="M790.643 340.481C791.328 340.657 792.053 340.79 792.682 341.128C792.705 341.146 792.458 341.484 792.434 341.467C791.802 341.199 791.121 341.06 790.465 340.865C790.439 340.852 790.616 340.469 790.643 340.481H790.643Z" fill="black"/>
<path d="M799.662 306.618C798.894 306.421 798.112 306.288 797.345 306.089C797.593 306.05 797.049 306.057 797.124 306.043C797.156 306.036 797.19 306.049 797.223 306.047C797.232 306.046 797.255 306.03 797.246 306.032C797.038 306.091 797.226 306.082 796.936 306.052C796.675 305.993 796.406 305.986 796.14 305.984C796.123 305.985 796.107 305.985 796.091 305.986C796.062 305.994 795.954 305.591 795.983 305.584C796.072 305.583 796.16 305.583 796.249 305.582C796.535 305.588 796.821 305.607 797.099 305.68C797.073 305.68 797.047 305.674 797.024 305.682C797.007 305.688 796.973 305.724 796.989 305.72C797.022 305.712 797.044 305.676 797.077 305.669C797.23 305.635 797.382 305.675 797.53 305.704C798.303 305.868 799.084 306.001 799.84 306.234C799.867 306.246 799.689 306.63 799.662 306.617L799.662 306.618Z" fill="black"/>
<path d="M809.84 307.334C810.553 307.317 811.266 307.319 811.978 307.335C812.022 307.336 812.066 307.338 812.11 307.339C812.139 307.346 812.035 307.747 812.007 307.74C811.962 307.741 811.918 307.743 811.873 307.744C811.161 307.759 810.447 307.762 809.734 307.745C809.705 307.737 809.811 307.326 809.84 307.333V307.334Z" fill="black"/>
<path d="M770.432 315.888C769.763 316.505 769.082 317.119 768.322 317.637C768.176 317.727 768.024 317.806 767.874 317.888L767.976 317.362C768.715 316.852 769.365 316.243 770.049 315.671C770.069 315.644 770.451 315.861 770.432 315.888V315.888Z" fill="black"/>
<path d="M788.642 318.614C788.953 318.747 789.253 319.018 789.559 319.223C789.629 319.25 789.597 319.224 789.656 319.292C789.667 319.311 789.579 319.819 789.567 319.8C789.525 319.788 789.556 319.797 789.479 319.769C789.171 319.59 788.868 319.344 788.56 319.156C788.549 319.139 788.63 318.596 788.642 318.614L788.642 318.614Z" fill="black"/>
<path d="M797.69 311.11C798.63 311.345 799.513 311.781 800.468 311.953C800.89 311.898 800.401 311.998 800.602 311.923C800.637 311.902 800.922 312.395 800.887 312.415C800.685 312.51 800.458 312.531 800.236 312.504C799.255 312.33 798.337 311.932 797.392 311.629C797.355 311.608 797.653 311.089 797.69 311.11V311.11Z" fill="black"/>
<path d="M799.227 295.845C799.643 296.24 799.973 296.712 800.35 297.142C800.584 297.41 800.837 297.65 801.05 297.935C801.213 298.122 801.151 298.201 801.083 298.44C801.069 298.477 800.54 298.253 800.556 298.215C800.775 297.821 800.726 298.55 800.553 298.252C800.322 297.986 800.062 297.751 799.828 297.488C799.458 297.073 799.137 296.617 798.753 296.213C798.727 296.179 799.202 295.811 799.228 295.845L799.227 295.845Z" fill="black"/>
<path d="M805.084 297.292C805.537 296.524 805.954 295.704 806.566 295.045L806.843 294.879L805.618 297.563C805.597 297.601 805.065 297.33 805.084 297.292H805.084Z" fill="black"/>
<path d="M776.347 312.187C776.98 311.558 777.592 310.871 778.35 310.388L778.66 310.298L776.795 312.584C776.766 312.615 776.319 312.218 776.347 312.187V312.187Z" fill="black"/>
<path d="M767.213 297.678C766.322 297.634 765.408 297.532 764.522 297.681L764.231 297.821L767.146 298.273C767.188 298.278 767.255 297.683 767.213 297.678V297.678Z" fill="black"/>
<path d="M782.727 326.631C781.836 326.587 780.922 326.485 780.036 326.634L779.745 326.775L782.66 327.226C782.702 327.231 782.769 326.636 782.727 326.632V326.631Z" fill="black"/>
<path d="M787.395 331.701C787.04 331.657 786.675 331.556 786.321 331.704L786.205 331.845L787.369 332.297C787.386 332.301 787.412 331.707 787.395 331.702L787.395 331.701Z" fill="black"/>
<path d="M787.569 274.361C787.044 274.87 786.321 275.073 785.669 275.57C785.016 276.068 784.489 276.881 784.393 278.509V278.522C784.059 285.095 785.398 289.692 786.497 294.902C787.345 300.387 786.944 310.977 784.884 316.029L784.87 316.042V316.069C780.88 327.979 785.627 334.157 786.704 342.554L787.13 342.501C784.765 331.775 783.891 323.884 785.282 316.162C785.283 316.157 785.281 316.154 785.282 316.149C787.922 309.924 788.29 302.646 787.555 294.862V294.849L787.54 294.836C786.708 290.448 783.467 278.179 785.932 275.903C786.461 275.336 786.932 275.157 787.567 274.36L787.569 274.361Z" fill="black"/>
<path d="M790.237 275.988C790.913 278.912 792.027 281.938 792.265 284.761C792.504 287.585 791.856 290.076 791.652 292.733C792.187 289.337 793.501 285.456 793.255 282.544C793.01 279.633 791.243 278.173 790.237 275.988V275.988Z" fill="black"/>
<path d="M792.006 300.611C792.664 309.039 789.15 313.732 788.911 316.555C788.673 319.379 791.121 329.341 789.758 332.732C790.624 328.002 787.675 317.25 787.921 314.338C788.167 311.427 791.2 310.367 792.006 300.61V300.611Z" fill="black"/>
<path d="M802.474 300.355C800.79 306.43 802.692 310.368 802.463 312.469C802.234 314.57 801.405 316.301 800.876 318.217C801.752 315.807 803.269 313.154 803.504 310.988C803.74 308.821 801.671 307.612 802.474 300.355H802.474Z" fill="black"/>
<path d="M806.563 301.402C807.367 306.225 807.973 311.031 806.763 315.678L807.83 314.811C808.936 310.123 807.916 305.739 806.563 301.402V301.402Z" fill="black"/>
<path d="M769.504 313.982C768.675 314.236 767.835 314.482 766.942 314.629C766.773 314.649 766.6 314.659 766.429 314.672L766.669 314.298C767.539 314.151 768.348 313.898 769.179 313.685C769.205 313.67 769.53 313.968 769.504 313.982H769.504Z" fill="black"/>
<path d="M763.82 303.998C764.701 303.975 765.582 303.983 766.463 303.993C766.778 303.998 766.635 303.994 766.894 304.001C766.923 304.008 766.819 304.414 766.79 304.407C766.528 304.413 766.673 304.409 766.355 304.415C765.475 304.425 764.595 304.432 763.715 304.409C763.686 304.402 763.791 303.991 763.82 303.998V303.998Z" fill="black"/>
<path d="M767.068 305.016C766.177 304.972 765.263 304.871 764.377 305.019L764.086 305.16L767.001 305.611C767.043 305.616 767.11 305.022 767.068 305.017L767.068 305.016Z" fill="black"/>
<path d="M804.845 346.08C805.943 343.894 806.926 340.569 807.912 338.329C806.405 340.399 805.409 343.7 804.077 345.884L804.845 346.08Z" fill="black"/>
<path d="M804.999 345.755C806.549 344.055 807.776 340.948 810.999 339.97C807.646 340.481 806.224 343.639 804.381 345.259L804.999 345.755Z" fill="black"/>
<path d="M804.76 346.367C806.892 345.17 809.568 342.965 811.639 341.662C809.231 342.533 806.56 344.71 804.233 345.775L804.76 346.367Z" fill="black"/>
<path d="M804.505 346.005C805.011 343.613 805.116 340.147 805.501 337.73C804.569 340.115 804.446 343.56 803.712 346.012L804.505 346.005Z" fill="black"/>
<path d="M776.231 344.983C778.108 344.783 779.993 344.687 781.879 344.672C782.817 344.656 783.752 344.741 784.687 344.782C785.409 344.789 786.13 344.769 786.851 344.759C787.697 344.704 788.514 344.954 789.343 345.074C789.604 345.111 789.866 345.113 790.128 345.103C790.149 345.097 790.222 345.364 790.203 345.369C789.882 345.376 789.56 345.383 789.241 345.334C788.471 345.219 787.709 344.992 786.924 345.032C786.153 345.04 785.381 345.063 784.609 345.046C783.725 345.01 782.841 344.947 781.956 344.959C780.075 344.977 778.197 345.082 776.324 345.25C776.307 345.257 776.212 344.989 776.231 344.983L776.231 344.983Z" fill="black"/>
<path d="M787.917 347.434C786.046 347.43 784.171 347.522 782.307 347.318C782.004 347.24 781.606 347.274 781.358 347.041C781.274 346.963 781.266 346.839 781.17 346.784C780.505 346.773 779.836 346.686 779.18 346.581C778.23 346.475 777.317 346.2 776.387 345.997C776.056 345.989 775.82 345.825 775.58 345.623C775.568 345.609 775.77 345.428 775.783 345.442C775.996 345.627 776.209 345.736 776.503 345.745C777.429 345.944 778.342 346.203 779.287 346.315C779.771 346.391 780.254 346.441 780.74 346.497C780.899 346.516 781.062 346.51 781.218 346.545C781.273 346.557 781.323 346.588 781.375 346.609C781.433 346.672 781.48 346.785 781.541 346.839C781.762 347.032 782.153 346.956 782.403 347.043C784.214 347.217 786.031 347.129 787.847 347.16C787.867 347.155 787.937 347.429 787.917 347.434L787.917 347.434Z" fill="black"/>
<path d="M778.725 345.659C780.88 346.066 783.069 346.21 785.258 346.243C786.327 346.255 787.392 346.169 788.455 346.064C789.186 346.092 789.9 345.996 790.624 345.903C791.568 345.852 792.492 345.672 793.422 345.524C793.757 345.467 794.094 345.476 794.43 345.51C794.448 345.515 794.36 345.775 794.342 345.769C794.07 345.745 793.799 345.73 793.527 345.782C792.595 345.934 791.671 346.128 790.724 346.17C789.999 346.26 789.278 346.356 788.546 346.323C787.427 346.441 786.307 346.564 785.179 346.537C782.977 346.507 780.772 346.364 778.611 345.918C778.593 345.909 778.707 345.651 778.725 345.659L778.725 345.659Z" fill="black"/>
<path d="M787.656 344.499C785.861 344.576 784.074 344.42 782.29 344.238C781.37 344.12 780.447 344.153 779.524 344.199C778.404 344.196 777.301 344.386 776.191 344.51C775.317 344.553 774.397 344.689 773.538 344.464C772.6 344.107 771.614 343.973 770.628 343.828C769.184 343.673 767.758 343.383 766.308 343.299C766.236 343.299 766.165 343.301 766.094 343.302C766.073 343.308 766.002 343.04 766.021 343.035C766.144 343.033 766.267 343.03 766.39 343.028C767.85 343.104 769.286 343.388 770.736 343.553C771.728 343.706 772.715 343.862 773.659 344.215C774.452 344.4 775.292 344.277 776.094 344.239C777.209 344.116 778.317 343.92 779.442 343.927C780.424 343.881 781.406 343.843 782.385 343.962C784.115 344.126 785.846 344.27 787.586 344.224C787.606 344.219 787.676 344.493 787.656 344.498V344.499Z" fill="black"/>
<path d="M782.553 345.476C784.099 345.115 785.678 344.942 787.251 344.748C788.302 344.671 789.349 344.551 790.399 344.464C790.569 344.495 792.068 344.204 791.32 344.777C791.227 344.849 791.093 344.84 790.98 344.872C789.43 345.176 787.895 345.517 786.323 345.689C784.64 345.83 782.933 345.711 781.34 345.136C780.903 345.082 780.657 344.583 780.22 344.609C779.792 344.675 779.374 344.704 779.078 345.053C779.248 345.483 780.844 345.832 781.233 345.919C782.753 346.204 784.292 346.36 785.821 346.59C786.725 346.672 787.618 346.826 788.517 346.952C789.005 346.993 789.494 346.934 789.981 346.901C790.656 346.813 791.304 346.928 791.957 347.09C792.573 347.243 793.201 347.265 793.83 347.224C794.355 347.228 794.828 347.004 795.329 346.885C795.673 346.823 796.023 346.8 796.373 346.809C796.476 346.811 796.58 346.813 796.682 346.827C796.715 346.831 796.801 346.839 796.777 346.863C796.674 346.967 796.532 347.021 796.409 347.1C795.315 346.943 794.239 346.652 793.161 346.404C791.75 346.134 790.311 346.215 788.886 346.296C788.195 346.321 787.505 346.435 786.813 346.397C786.879 346.304 786.917 346.183 787.012 346.12C787.099 346.062 787.217 346.079 787.319 346.06C787.482 346.03 787.645 346.004 787.807 345.973C788.642 345.813 789.47 345.62 790.302 345.452C792.046 345.218 793.746 344.721 795.498 344.543C795.644 344.553 796.055 344.483 796.173 344.678C796.263 344.828 796.161 344.958 796.301 345.054C796.983 345.35 797.729 345.357 798.454 345.447C799.144 345.556 799.837 345.645 800.537 345.62C800.976 345.571 801.388 345.558 801.817 345.674C801.835 345.682 801.711 345.928 801.693 345.92C801.327 345.827 800.989 345.833 800.612 345.886C799.854 345.906 799.104 345.839 798.355 345.713C797.583 345.621 796.75 345.625 796.07 345.198C796.033 345.137 795.985 345.081 795.959 345.014C795.944 344.977 795.956 344.935 795.953 344.895C795.962 344.888 795.986 344.883 795.982 344.872C795.951 344.771 795.628 344.826 795.591 344.81C793.85 345.001 792.161 345.509 790.423 345.729C789.586 345.893 788.754 346.083 787.915 346.235C787.754 346.265 787.591 346.286 787.43 346.315C787.319 346.334 787.205 346.415 787.098 346.38C786.998 346.347 786.961 346.219 786.892 346.138C787.526 346.193 788.165 346.007 788.798 346.017C790.293 345.926 791.805 345.847 793.283 346.144C794.347 346.389 795.408 346.676 796.487 346.836C796.539 346.923 796.602 347.005 796.643 347.098C796.649 347.111 796.614 347.091 796.599 347.089C796.546 347.085 796.494 347.08 796.441 347.079C796.108 347.071 795.775 347.081 795.446 347.137C794.93 347.246 794.45 347.491 793.913 347.487C793.215 347.54 792.516 347.513 791.834 347.341C791.246 347.198 790.672 347.081 790.063 347.164C789.516 347.2 788.965 347.268 788.416 347.21C787.516 347.088 786.618 346.947 785.713 346.861C784.177 346.636 782.63 346.482 781.107 346.183C780.61 346.064 779.006 345.726 778.824 345.126C778.801 345.054 778.841 344.976 778.847 344.901C779.219 344.459 779.739 344.38 780.293 344.348C780.753 344.394 781.034 344.782 781.482 344.891C783.001 345.414 784.624 345.523 786.22 345.406C787.783 345.243 789.306 344.9 790.85 344.623C791.15 344.546 791.204 344.439 791.422 344.715C791.425 344.718 791.332 344.703 791.15 344.703C790.866 344.705 790.784 344.714 790.485 344.732C789.439 344.821 788.396 344.94 787.349 345.022C785.783 345.217 784.213 345.401 782.669 345.732C782.651 345.74 782.532 345.484 782.55 345.476L782.553 345.476Z" fill="black"/>
</g>
<defs>
<filter id="filter0_d_2_4256" x="-4" y="133.842" width="1894.39" height="212.123" filterUnits="userSpaceOnUse" color-interpolation-filters="sRGB">
<feFlood flood-opacity="0" result="BackgroundImageFix"/>
<feColorMatrix in="SourceAlpha" type="matrix" values="0 0 0 0 0 0 0 0 0 0 0 0 0 0 0 0 0 0 127 0" result="hardAlpha"/>
<feOffset dy="4"/>
<feGaussianBlur stdDeviation="2"/>
<feComposite in2="hardAlpha" operator="out"/>
<feColorMatrix type="matrix" values="0 0 0 0 0 0 0 0 0 0 0 0 0 0 0 0 0 0 0.25 0"/>
<feBlend mode="normal" in2="BackgroundImageFix" result="effect1_dropShadow_2_4256"/>
<feBlend mode="normal" in="SourceGraphic" in2="effect1_dropShadow_2_4256" result="shape"/>
</filter>
<filter id="filter1_d_2_4256" x="-4" y="133.842" width="916.654" height="212.123" filterUnits="userSpaceOnUse" color-interpolation-filters="sRGB">
<feFlood flood-opacity="0" result="BackgroundImageFix"/>
<feColorMatrix in="SourceAlpha" type="matrix" values="0 0 0 0 0 0 0 0 0 0 0 0 0 0 0 0 0 0 127 0" result="hardAlpha"/>
<feOffset dy="4"/>
<feGaussianBlur stdDeviation="2"/>
<feComposite in2="hardAlpha" operator="out"/>
<feColorMatrix type="matrix" values="0 0 0 0 0 0 0 0 0 0 0 0 0 0 0 0 0 0 0.25 0"/>
<feBlend mode="normal" in2="BackgroundImageFix" result="effect1_dropShadow_2_4256"/>
<feBlend mode="normal" in="SourceGraphic" in2="effect1_dropShadow_2_4256" result="shape"/>
</filter>
<clipPath id="clip0_2_4256">
<rect width="1052.4" height="744.09" fill="white"/>
</clipPath>
</defs>
</svg>
