<svg width="795" height="616" viewBox="0 0 795 616" fill="none" xmlns="http://www.w3.org/2000/svg">
<g clip-path="url(#clip0_2_2)">
<path d="M309.242 462.575L319.986 471.566L360.55 433.48L344.693 420.211L309.242 462.575Z" fill="#FFB6B6"/>
<path d="M341.028 459.534L318.275 443.829L378.183 348.848C334.763 323.61 304.902 292.823 280.538 259.005C272.258 247.592 267.21 234.309 278.762 225.747C279.302 225.347 279.856 224.968 280.425 224.61C293.597 216.402 289.321 228.703 307.376 222.662L323.69 240.065L358.937 274.361L419.058 312.739C431.149 320.457 434.504 336.691 426.552 348.999C426.132 349.649 425.684 350.28 425.21 350.893L341.028 459.534Z" fill="#2F2E41"/>
<path d="M310.603 455.252L329.441 469.196L323.008 476.883L330.207 502.939C330.562 504.226 330.497 505.593 330.021 506.841C329.545 508.088 328.683 509.15 327.56 509.873C326.437 510.595 325.113 510.94 323.78 510.857C322.448 510.773 321.177 510.266 320.153 509.409L298.792 491.533L301.474 480.848L293.673 487.248L285.619 480.508L310.603 455.252Z" fill="#2F2E41"/>
<path d="M306.687 524.884L275.958 499.277C273.819 497.494 272.477 494.935 272.225 492.162C271.974 489.389 272.834 486.63 274.616 484.491C276.398 482.353 278.957 481.009 281.73 480.756C284.502 480.504 287.262 481.363 289.401 483.144L320.131 508.751C321.19 509.633 322.066 510.716 322.707 511.937C323.349 513.158 323.743 514.494 323.868 515.867C323.994 517.241 323.847 518.625 323.437 519.942C323.027 521.259 322.361 522.482 321.478 523.542C320.595 524.601 319.512 525.476 318.291 526.117C317.07 526.758 315.734 527.152 314.361 527.277C312.987 527.402 311.602 527.254 310.286 526.844C308.969 526.433 307.746 525.767 306.687 524.884L306.687 524.884Z" fill="#3F3D56"/>
<path d="M483.47 219.067C481.556 219.727 479.522 219.959 477.509 219.748C475.496 219.536 473.554 218.886 471.819 217.843C470.085 216.8 468.601 215.389 467.47 213.71C466.34 212.031 465.592 210.124 465.278 208.125L357.124 180.275L374.762 161.768L477.773 192.015C481.167 191.711 484.555 192.662 487.294 194.689C490.034 196.715 491.935 199.676 492.637 203.011C493.339 206.345 492.794 209.822 491.104 212.781C489.415 215.74 486.698 217.977 483.47 219.067H483.47Z" fill="#FFB6B6"/>
<path d="M319.168 89.7592C319.168 89.7592 301.582 91.7967 301.898 112.062C302.214 132.327 345.322 178.492 352.048 186.141C358.773 193.79 425.892 197.698 425.892 197.698L446.859 179.262L384.69 158.316L319.168 89.7592Z" fill="#E78282"/>
<path d="M347.808 74.8749C363.907 72.1379 374.739 56.8684 372.002 40.7696C369.265 24.6708 353.995 13.8389 337.896 16.5759C321.797 19.3129 310.966 34.5823 313.702 50.6811C316.439 66.78 331.709 77.6119 347.808 74.8749Z" fill="#FFB6B6"/>
<path d="M284.311 360.348L168.115 401.9L171.483 411.316L287.678 369.764L284.311 360.348Z" fill="#3F3D56"/>
<path d="M369.248 523.673C379.495 523.673 387.802 515.367 387.802 505.12C387.802 494.873 379.495 486.567 369.248 486.567C359.002 486.567 350.695 494.873 350.695 505.12C350.695 515.367 359.002 523.673 369.248 523.673Z" fill="#3F3D56"/>
<path d="M156.357 505.986L149.061 499.147L279.296 360.214L511.708 290.657L627.053 493.091L618.365 498.042L506.957 302.518L284.748 369.021L156.357 505.986Z" fill="#3F3D56"/>
<path d="M287.022 312.334H277.022V364.617H287.022V312.334Z" fill="#3F3D56"/>
<path d="M481.467 194.03L471.951 197.103L504.574 298.124L514.09 295.051L481.467 194.03Z" fill="#3F3D56"/>
<path d="M286.024 358.039L277.394 363.094L359.394 503.094L368.024 498.039L286.024 358.039Z" fill="#3F3D56"/>
<path d="M555.888 378.43L379.896 498.442L385.53 506.703L561.522 386.692L555.888 378.43Z" fill="#3F3D56"/>
<path d="M301.209 318.567H261.209C258.424 318.567 255.754 317.46 253.784 315.491C251.815 313.522 250.709 310.851 250.709 308.067C250.709 305.282 251.815 302.611 253.784 300.642C255.754 298.673 258.424 297.567 261.209 297.567H301.209C303.994 297.567 306.665 298.673 308.634 300.642C310.603 302.611 311.709 305.282 311.709 308.067C311.709 310.851 310.603 313.522 308.634 315.491C306.665 317.46 303.994 318.567 301.209 318.567Z" fill="#6C63FF"/>
<path d="M496.209 205.567H456.209C453.424 205.567 450.754 204.46 448.784 202.491C446.815 200.522 445.709 197.851 445.709 195.067C445.709 192.282 446.815 189.611 448.784 187.642C450.754 185.673 453.424 184.567 456.209 184.567H496.209C498.994 184.567 501.665 185.673 503.634 187.642C505.603 189.611 506.709 192.282 506.709 195.067C506.709 197.851 505.603 200.522 503.634 202.491C501.665 204.46 498.994 205.567 496.209 205.567Z" fill="#6C63FF"/>
<path d="M525.869 328.593L492.475 258.103L492.927 257.889C495.241 256.792 497.749 256.163 500.306 256.035C502.864 255.908 505.422 256.286 507.833 257.147C510.245 258.008 512.463 259.336 514.362 261.054C516.26 262.773 517.801 264.849 518.898 267.163L535.594 302.408C536.691 304.723 537.321 307.23 537.448 309.788C537.575 312.345 537.198 314.903 536.336 317.314C535.475 319.726 534.147 321.944 532.429 323.843C530.71 325.741 528.635 327.282 526.32 328.379L525.869 328.593Z" fill="#3F3D56"/>
<path d="M423.791 340.983C419.586 340.971 415.498 339.604 412.133 337.083C408.769 334.563 406.307 331.023 405.115 326.992L404.973 326.512L479.785 304.439L479.926 304.918C480.651 307.374 480.885 309.949 480.615 312.496C480.344 315.042 479.575 317.51 478.351 319.759C477.126 322.009 475.471 323.995 473.479 325.604C471.487 327.213 469.198 328.415 466.742 329.139L429.336 340.176C427.536 340.709 425.668 340.981 423.791 340.983Z" fill="#3F3D56"/>
<path d="M475.374 483.604L441.985 505.631C439.66 507.164 436.822 507.712 434.094 507.152C431.366 506.593 428.971 504.973 427.438 502.648C425.905 500.324 425.357 497.485 425.917 494.757C426.476 492.029 428.096 489.635 430.421 488.102L463.81 466.075C466.134 464.542 468.973 463.994 471.701 464.554C474.429 465.113 476.823 466.733 478.356 469.058C479.89 471.382 480.437 474.221 479.878 476.949C479.318 479.677 477.698 482.071 475.374 483.604Z" fill="#3F3D56"/>
<path d="M415.996 460.387L429.152 455.538L416.758 401.282L397.341 408.44L415.996 460.387Z" fill="#FFB6B6"/>
<path d="M409.595 458.812L428.967 445.619L434.106 454.225L461.079 456.012C462.411 456.1 463.681 456.612 464.701 457.472C465.722 458.333 466.441 459.497 466.754 460.795C467.066 462.093 466.955 463.457 466.437 464.688C465.92 465.918 465.022 466.951 463.876 467.636L439.96 481.915L430.755 475.863L434.229 485.337L425.212 490.721L409.595 458.812Z" fill="#2F2E41"/>
<path d="M425.222 426.241L394.457 440.349L375.715 328.275C325.846 322.324 280.312 311.627 244.535 290.243C232.408 283.049 228.421 267.132 235.63 254.691C235.967 254.11 236.325 253.542 236.706 252.988C245.543 240.23 260.646 233.835 274.825 221.129L334.861 251.167L328.51 267.526L398.921 278.918C413.08 281.208 422.598 294.781 420.178 309.234C420.05 309.997 419.89 310.753 419.697 311.504L425.222 426.241Z" fill="#2F2E41"/>
<path d="M324.641 74.5894L343.994 84.7086C345.063 85.1353 345.972 85.885 346.595 86.853C347.218 87.8211 347.523 88.9594 347.469 90.1093L352.51 110.281L370.247 147.825C370.247 147.825 374.869 167.806 366.049 186.671C357.229 205.537 337.709 252.567 337.709 252.567C324.978 283.06 220.476 259.512 247.709 233.567C250.949 230.479 269.162 204.403 275.826 202.904L292.176 109.339C293 104.399 294.907 99.7024 297.761 95.5864C300.614 91.4704 304.342 88.0368 308.679 85.5317C311.299 84.0508 313.727 83.174 315.392 83.6215C319.185 84.5055 320.978 75.9146 324.641 74.5894Z" fill="#E78282"/>
<path d="M492.72 198.566C490.96 199.566 489.003 200.167 486.985 200.329C484.968 200.49 482.939 200.207 481.043 199.5C479.147 198.793 477.429 197.678 476.01 196.235C474.591 194.792 473.505 193.055 472.83 191.147L361.402 183.611L375.346 162.182L482.157 173.018C485.438 172.097 488.943 172.41 492.008 173.9C495.072 175.389 497.484 177.951 498.786 181.1C500.088 184.25 500.19 187.767 499.072 190.986C497.954 194.205 495.694 196.902 492.72 198.566Z" fill="#FFB6B6"/>
<path d="M307.484 101.595C307.484 101.595 290.571 106.824 294.599 126.687C298.628 146.551 349.474 184.024 357.489 190.309C365.503 196.594 432.2 188.122 432.2 188.122L449.428 166.153L384.472 156.968L307.484 101.595Z" fill="#E78282"/>
<path d="M374.391 35.9436C369.926 38.143 364.87 34.9553 360.964 31.7852L362.362 32.9677C355.584 39.6989 352.482 49.3148 351.015 58.7644C349.546 68.2041 349.471 77.8431 347.596 87.22C345.719 96.587 341.724 106.02 334.139 111.824C323.979 119.597 309.851 119.25 297.26 117.028C297.092 116.996 296.936 116.972 296.768 116.94C300.049 107.142 301.317 96.7833 300.496 86.4839C297.234 96.8471 291.597 106.305 284.033 114.104C275.678 111.897 267.515 109.017 259.624 105.493C254.519 103.207 249.014 100.065 247.548 94.6642C246.079 89.3046 249.304 83.6338 253.66 80.1952C258.015 76.7566 263.385 74.9307 268.361 72.4617C273.33 70.0041 278.236 66.5227 280.182 61.3229C284.67 49.3614 271.394 35.8252 276.393 24.0609C278.858 18.2758 285.009 15.0796 290.796 12.6047C299.631 8.83627 308.71 5.6694 317.972 3.12573C326.103 0.891348 334.598 -0.867411 342.918 0.456889C351.237 1.78118 359.426 6.74895 362.496 14.6055C367.501 16.2398 372.815 18.0852 376.059 22.2503C379.302 26.4056 379.118 33.6184 374.391 35.9436Z" fill="#2F2E41"/>
<path d="M152.249 615.12C130.888 615.12 110.008 608.786 92.247 596.919C74.4865 585.052 60.6439 568.185 52.4696 548.45C44.2953 528.716 42.1566 507 46.3238 486.05C50.491 465.101 60.777 445.857 75.8811 430.753C90.9851 415.649 110.229 405.363 131.179 401.195C152.129 397.028 173.844 399.167 193.578 407.341C213.313 415.516 230.18 429.358 242.047 447.119C253.915 464.879 260.249 485.76 260.249 507.12C260.216 535.754 248.827 563.205 228.58 583.452C208.333 603.699 180.882 615.088 152.249 615.12ZM152.249 409.12C132.866 409.12 113.919 414.868 97.8027 425.636C81.6867 436.405 69.1258 451.71 61.7084 469.617C54.291 487.524 52.3503 507.229 56.1316 526.239C59.913 545.249 69.2466 562.711 82.9521 576.417C96.6577 590.122 114.12 599.456 133.13 603.237C152.14 607.019 171.844 605.078 189.752 597.66C207.659 590.243 222.964 577.682 233.733 561.566C244.501 545.45 250.249 526.503 250.249 507.12C250.219 481.138 239.885 456.228 221.513 437.856C203.14 419.484 178.231 409.15 152.249 409.12Z" fill="#3F3D56"/>
<path d="M152.248 523.12C161.085 523.12 168.248 515.957 168.248 507.12C168.248 498.283 161.085 491.12 152.248 491.12C143.412 491.12 136.248 498.283 136.248 507.12C136.248 515.957 143.412 523.12 152.248 523.12Z" fill="#3F3D56"/>
<path d="M150.551 507L79.9915 580.869L81.4378 582.25L151.997 508.381L150.551 507Z" fill="#3F3D56"/>
<path d="M152 404L152 511H154L154 404H152Z" fill="#3F3D56"/>
<path d="M154 508.633L235.182 566.041L236.337 564.408L155.155 507L154 508.633Z" fill="#3F3D56"/>
<path d="M620.689 613.567C598.146 613.567 576.109 606.882 557.365 594.358C538.621 581.833 524.012 564.032 515.385 543.205C506.758 522.378 504.501 499.461 508.899 477.351C513.297 455.241 524.153 434.931 540.093 418.991C556.033 403.051 576.343 392.195 598.452 387.797C620.562 383.399 643.48 385.657 664.307 394.283C685.134 402.91 702.935 417.519 715.459 436.263C727.984 455.007 734.668 477.044 734.668 499.587C734.634 529.806 722.615 558.777 701.247 580.145C679.879 601.513 650.908 613.532 620.689 613.567ZM620.689 396.161C600.233 396.161 580.237 402.227 563.228 413.591C546.22 424.956 532.964 441.109 525.136 460.008C517.307 478.906 515.259 499.702 519.25 519.764C523.241 539.827 533.091 558.256 547.555 572.72C562.02 587.185 580.449 597.035 600.511 601.026C620.574 605.016 641.369 602.968 660.268 595.14C679.167 587.312 695.32 574.056 706.684 557.047C718.049 540.039 724.115 520.043 724.115 499.587C724.084 472.166 713.177 445.877 693.788 426.488C674.398 407.099 648.109 396.192 620.689 396.161Z" fill="#3F3D56"/>
<path d="M625.709 523.567C634.546 523.567 641.709 516.403 641.709 507.567C641.709 498.73 634.546 491.567 625.709 491.567C616.872 491.567 609.709 498.73 609.709 507.567C609.709 516.403 616.872 523.567 625.709 523.567Z" fill="#3F3D56"/>
<path d="M620.249 388.517L624.019 506.751L626.018 506.687L622.248 388.453L620.249 388.517Z" fill="#3F3D56"/>
<path d="M695.734 577.406L627.425 508L626 509.403L694.308 578.809L695.734 577.406Z" fill="#3F3D56"/>
<path d="M625.672 507L544.258 574.788L545.538 576.325L626.952 508.537L625.672 507Z" fill="#3F3D56"/>
<path d="M534.367 303.522C540.324 301.319 542.437 292.185 539.086 283.12C535.734 274.054 528.188 268.491 522.231 270.693C516.274 272.895 514.161 282.029 517.512 291.095C520.864 300.16 528.41 305.724 534.367 303.522Z" fill="#6C63FF"/>
</g>
<defs>
<clipPath id="clip0_2_2">
<rect width="794.67" height="615.311" fill="white"/>
</clipPath>
</defs>
</svg>
