<svg width="399" height="174" viewBox="0 0 399 174" fill="none" xmlns="http://www.w3.org/2000/svg">
<path d="M269.619 60.4686C269.671 66.7943 267.843 73.0644 264.241 78.9185C260.639 84.7726 255.333 90.0953 248.629 94.5804C241.925 99.0656 233.954 102.625 225.176 105.054C216.398 107.482 206.985 108.733 197.478 108.733C187.971 108.733 178.558 107.482 169.78 105.054C161.001 102.625 153.031 99.0656 146.327 94.5804C139.623 90.0953 134.317 84.7726 130.715 78.9185C127.112 73.0644 125.285 66.7943 125.336 60.4686C125.285 54.1428 127.112 47.8727 130.715 42.0186C134.317 36.1645 139.623 30.8418 146.327 26.3567C153.031 21.8715 161.001 18.3123 169.78 15.8835C178.558 13.4548 187.971 12.2045 197.478 12.2045C206.985 12.2045 216.398 13.4548 225.176 15.8835C233.954 18.3123 241.925 21.8715 248.629 26.3567C255.333 30.8418 260.639 36.1645 264.241 42.0186C267.843 47.8727 269.671 54.1428 269.619 60.4686Z" fill="url(#paint0_radial_2_2)"/>
<path d="M269.619 60.4686L268.998 60.4635L268.998 60.4736L269.619 60.4686ZM125.336 60.4686L125.958 60.4736L125.957 60.4635L125.336 60.4686ZM197.478 12.2045V12.8258V12.2045ZM268.998 60.4736C269.049 66.6726 267.258 72.8293 263.712 78.5929L264.77 79.2441C268.428 73.2996 270.293 66.916 270.241 60.4635L268.998 60.4736ZM263.712 78.5929C260.164 84.3589 254.926 89.62 248.283 94.064L248.974 95.0968C255.74 90.5705 261.114 85.1864 264.77 79.2441L263.712 78.5929ZM248.283 94.064C241.641 98.5079 233.733 102.041 225.011 104.455L225.342 105.652C234.176 103.208 242.208 99.6233 248.974 95.0968L248.283 94.064ZM225.011 104.455C216.289 106.868 206.931 108.111 197.478 108.111V109.354C207.038 109.354 216.507 108.097 225.342 105.652L225.011 104.455ZM197.478 108.111C188.024 108.111 178.667 106.868 169.945 104.455L169.614 105.652C178.448 108.097 187.917 109.354 197.478 109.354V108.111ZM169.945 104.455C161.223 102.041 153.315 98.5079 146.672 94.064L145.981 95.0968C152.747 99.6233 160.78 103.208 169.614 105.652L169.945 104.455ZM146.672 94.064C140.03 89.62 134.792 84.3589 131.244 78.5929L130.186 79.2441C133.842 85.1864 139.216 90.5705 145.981 95.0968L146.672 94.064ZM131.244 78.5929C127.697 72.8293 125.907 66.6726 125.957 60.4736L124.715 60.4635C124.662 66.916 126.528 73.2996 130.186 79.2441L131.244 78.5929ZM125.957 60.4635C125.907 54.2645 127.697 48.1078 131.244 42.3442L130.186 41.693C126.528 47.6375 124.662 54.0211 124.715 60.4736L125.957 60.4635ZM131.244 42.3442C134.792 36.5782 140.03 31.3171 146.672 26.8731L145.981 25.8403C139.216 30.3666 133.842 35.7507 130.186 41.693L131.244 42.3442ZM146.672 26.8731C153.315 22.4292 161.223 18.8956 169.945 16.4824L169.614 15.2847C160.78 17.7289 152.747 21.3138 145.981 25.8403L146.672 26.8731ZM169.945 16.4824C178.667 14.0692 188.024 12.8258 197.478 12.8258V11.5832C187.917 11.5832 178.448 12.8404 169.614 15.2847L169.945 16.4824ZM197.478 12.8258C206.931 12.8258 216.289 14.0692 225.011 16.4824L225.342 15.2847C216.507 12.8404 207.038 11.5832 197.478 11.5832V12.8258ZM225.011 16.4824C233.733 18.8956 241.641 22.4292 248.283 26.8731L248.974 25.8403C242.208 21.3138 234.176 17.7289 225.342 15.2847L225.011 16.4824ZM248.283 26.8731C254.926 31.3171 260.164 36.5782 263.712 42.3442L264.77 41.693C261.114 35.7507 255.74 30.3666 248.974 25.8403L248.283 26.8731ZM263.712 42.3442C267.258 48.1078 269.049 54.2645 268.998 60.4635L270.241 60.4736C270.293 54.0211 268.428 47.6375 264.77 41.693L263.712 42.3442Z" fill="black"/>
<path fill-rule="evenodd" clip-rule="evenodd" d="M115.85 52.089L118.6 48.886H277.78L280.95 52.624L115.85 52.089Z" fill="white" stroke="black" stroke-width="1.001" stroke-linejoin="round"/>
<path d="M212.735 152.38H182.21V158.921H212.735V152.38Z" fill="white" stroke="black" stroke-width="1.001" stroke-linejoin="round"/>
<path d="M251.761 129.775C251.809 133.341 250.44 136.876 247.733 140.177C245.027 143.479 241.035 146.481 235.989 149.011C230.943 151.54 224.942 153.548 218.332 154.918C211.721 156.289 204.632 156.994 197.471 156.994C190.311 156.994 183.222 156.289 176.611 154.918C170 153.548 163.999 151.54 158.953 149.011C153.907 146.481 149.916 143.479 147.209 140.177C144.502 136.876 143.134 133.341 143.182 129.775C143.134 126.209 144.502 122.674 147.209 119.372C149.916 116.071 153.907 113.069 158.953 110.539C163.999 108.009 170 106.001 176.611 104.631C183.222 103.261 190.311 102.556 197.471 102.556C204.632 102.556 211.721 103.261 218.332 104.631C224.942 106.001 230.943 108.009 235.989 110.539C241.035 113.069 245.027 116.071 247.733 119.372C250.44 122.674 251.809 126.209 251.761 129.775V129.775Z" fill="#A49D9D" stroke="black" stroke-width="1.12345" stroke-linejoin="round"/>
<path d="M319.019 132.886C319.059 135.315 318.478 137.726 317.309 139.979C316.139 142.232 314.405 144.282 312.206 146.011C310.007 147.739 307.388 149.112 304.5 150.049C301.612 150.985 298.513 151.468 295.383 151.468C292.253 151.468 289.154 150.985 286.266 150.049C283.379 149.112 280.759 147.739 278.56 146.011C276.362 144.282 274.627 142.232 273.458 139.979C272.288 137.726 271.707 135.315 271.747 132.886C271.707 130.458 272.288 128.047 273.458 125.794C274.627 123.541 276.362 121.491 278.56 119.762C280.759 118.034 283.379 116.661 286.266 115.724C289.154 114.787 292.253 114.305 295.383 114.305C298.513 114.305 301.612 114.787 304.5 115.724C307.388 116.661 310.007 118.034 312.206 119.762C314.405 121.491 316.139 123.541 317.309 125.794C318.478 128.047 319.059 130.458 319.019 132.886V132.886Z" fill="#A49D9D" fill-opacity="0.45" stroke="black" stroke-width="1.06964" stroke-linejoin="round"/>
<path d="M117.023 132.886C117.064 135.315 116.483 137.726 115.313 139.979C114.144 142.232 112.409 144.282 110.21 146.011C108.012 147.739 105.392 149.112 102.504 150.049C99.6165 150.985 96.5177 151.468 93.3877 151.468C90.2577 151.468 87.1589 150.985 84.271 150.049C81.3832 149.112 78.7639 147.739 76.5651 146.011C74.3663 144.282 72.6317 142.232 71.4622 139.979C70.2926 137.726 69.7113 135.315 69.752 132.886C69.7113 130.458 70.2926 128.047 71.4622 125.794C72.6317 123.541 74.3663 121.491 76.5651 119.762C78.7639 118.034 81.3832 116.661 84.271 115.724C87.1589 114.787 90.2577 114.305 93.3877 114.305C96.5177 114.305 99.6165 114.787 102.504 115.724C105.392 116.661 108.012 118.034 110.21 119.762C112.409 121.491 114.144 123.541 115.313 125.794C116.483 128.047 117.064 130.458 117.023 132.886Z" fill="#A49D9D" fill-opacity="0.45" stroke="black" stroke-width="1.06964" stroke-linejoin="round"/>
<path fill-rule="evenodd" clip-rule="evenodd" d="M115.87 51.91V85.471H281.1V52.33L115.87 51.91Z" fill="#D7D4D4" stroke="black" stroke-width="1.0035" stroke-linejoin="round"/>
<path d="M275.999 68C276.007 68.6501 275.96 69.2971 275.863 69.9029C275.766 70.5087 275.62 71.061 275.434 71.5271C275.247 71.9932 275.024 72.3637 274.778 72.6167C274.532 72.8697 274.267 73 274 73C273.733 73 273.468 72.8697 273.222 72.6167C272.976 72.3637 272.753 71.9932 272.566 71.5271C272.38 71.061 272.234 70.5087 272.137 69.9029C272.04 69.2971 271.993 68.6501 272.001 68C271.993 67.35 272.04 66.7029 272.137 66.0971C272.234 65.4913 272.38 64.939 272.566 64.4729C272.753 64.0068 272.976 63.6363 273.222 63.3833C273.468 63.1303 273.733 63 274 63C274.267 63 274.532 63.1303 274.778 63.3833C275.024 63.6363 275.247 64.0068 275.434 64.4729C275.62 64.939 275.766 65.4913 275.863 66.0971C275.96 66.7029 276.007 67.35 275.999 68Z" stroke="black" stroke-width="1.2"/>
<path fill-rule="evenodd" clip-rule="evenodd" d="M89.348 98.212H305.748C305.748 98.212 295.808 95.031 290.148 91.154C284.568 87.334 281.228 84.095 281.228 84.095H115.168C115.168 84.095 109.908 88.77 105.138 91.525C100.448 94.23 89.346 98.212 89.346 98.212H89.348Z" fill="#E9DDDD" stroke="black"/>
<g filter="url(#filter0_d_2_2)">
<path fill-rule="evenodd" clip-rule="evenodd" d="M8.5447 134.99H384.515C384.515 134.99 381.575 127.73 365.195 118.27C348.695 108.74 303.895 96.355 303.895 96.355H91.7647C91.7677 96.355 44.4077 109 28.9827 117.9C13.8347 126.65 8.5497 134.99 8.5497 134.99H8.5447Z" fill="#D7D4D4"/>
<path fill-rule="evenodd" clip-rule="evenodd" d="M8.5447 134.99H384.515C384.515 134.99 381.575 127.73 365.195 118.27C348.695 108.74 303.895 96.355 303.895 96.355H91.7647C91.7677 96.355 44.4077 109 28.9827 117.9C13.8347 126.65 8.5497 134.99 8.5497 134.99H8.5447Z" stroke="black"/>
</g>
<path d="M254.666 67.8847C254.684 68.5198 254.572 69.1519 254.338 69.7437C254.103 70.3355 253.75 70.8751 253.299 71.3304C252.849 71.7858 252.31 72.1478 251.715 72.3949C251.12 72.6421 250.48 72.7694 249.834 72.7694C249.188 72.7694 248.549 72.6421 247.953 72.3949C247.358 72.1478 246.82 71.7858 246.369 71.3304C245.919 70.8751 245.566 70.3355 245.331 69.7437C245.096 69.1519 244.984 68.5198 245.002 67.8847C244.984 67.2496 245.096 66.6175 245.331 66.0257C245.566 65.4339 245.919 64.8943 246.369 64.439C246.82 63.9836 247.358 63.6216 247.953 63.3745C248.549 63.1273 249.188 63 249.834 63C250.48 63 251.12 63.1273 251.715 63.3745C252.31 63.6216 252.849 63.9836 253.299 64.439C253.75 64.8943 254.103 65.4339 254.338 66.0257C254.572 66.6175 254.684 67.2496 254.666 67.8847Z" stroke="black" stroke-width="1.31062"/>
<path d="M268.666 67.8847C268.684 68.5198 268.572 69.1519 268.338 69.7437C268.103 70.3355 267.75 70.8751 267.299 71.3304C266.849 71.7858 266.31 72.1478 265.715 72.3949C265.12 72.6421 264.48 72.7694 263.834 72.7694C263.188 72.7694 262.549 72.6421 261.953 72.3949C261.358 72.1478 260.82 71.7858 260.369 71.3304C259.919 70.8751 259.566 70.3355 259.331 69.7437C259.096 69.1519 258.984 68.5198 259.002 67.8847C258.984 67.2496 259.096 66.6175 259.331 66.0257C259.566 65.4339 259.919 64.8943 260.369 64.439C260.82 63.9836 261.358 63.6216 261.953 63.3745C262.549 63.1273 263.188 63 263.834 63C264.48 63 265.12 63.1273 265.715 63.3745C266.31 63.6216 266.849 63.9836 267.299 64.439C267.75 64.8943 268.103 65.4339 268.338 66.0257C268.572 66.6175 268.684 67.2496 268.666 67.8847V67.8847Z" stroke="black" stroke-width="1.31062"/>
<path d="M151.553 67.9221C151.569 68.562 151.47 69.1989 151.262 69.7953C151.054 70.3916 150.742 70.9353 150.343 71.3941C149.944 71.853 149.468 72.2177 148.941 72.4668C148.415 72.7158 147.849 72.8441 147.277 72.8441C146.706 72.8441 146.14 72.7158 145.613 72.4668C145.087 72.2177 144.61 71.853 144.211 71.3941C143.813 70.9353 143.5 70.3916 143.293 69.7953C143.085 69.1989 142.986 68.562 143.002 67.9221C142.986 67.2821 143.085 66.6452 143.293 66.0488C143.5 65.4525 143.813 64.9088 144.211 64.45C144.61 63.9911 145.087 63.6264 145.613 63.3774C146.14 63.1283 146.706 63 147.277 63C147.849 63 148.415 63.1283 148.941 63.3774C149.468 63.6264 149.944 63.9911 150.343 64.45C150.742 64.9088 151.054 65.4525 151.262 66.0488C151.47 66.6452 151.569 67.2821 151.553 67.9221V67.9221Z" stroke="black" stroke-width="1.23752"/>
<path d="M136.553 67.9221C136.569 68.562 136.47 69.1989 136.262 69.7953C136.054 70.3916 135.742 70.9353 135.343 71.3941C134.944 71.853 134.468 72.2177 133.941 72.4668C133.415 72.7158 132.849 72.8441 132.277 72.8441C131.706 72.8441 131.14 72.7158 130.613 72.4668C130.087 72.2177 129.61 71.853 129.211 71.3941C128.813 70.9353 128.5 70.3916 128.293 69.7953C128.085 69.1989 127.986 68.562 128.002 67.9221C127.986 67.2821 128.085 66.6452 128.293 66.0488C128.5 65.4525 128.813 64.9088 129.211 64.45C129.61 63.9911 130.087 63.6264 130.613 63.3774C131.14 63.1283 131.706 63 132.277 63C132.849 63 133.415 63.1283 133.941 63.3774C134.468 63.6264 134.944 63.9911 135.343 64.45C135.742 64.9088 136.054 65.4525 136.262 66.0488C136.47 66.6452 136.569 67.2821 136.553 67.9221V67.9221Z" stroke="black" stroke-width="1.23752"/>
<path d="M156.98 21.066H238.59" stroke="black"/>
<path d="M122.999 68C123.007 68.6501 122.96 69.2971 122.863 69.9029C122.766 70.5087 122.62 71.061 122.434 71.5271C122.247 71.9932 122.024 72.3637 121.778 72.6167C121.532 72.8697 121.267 73 121 73C120.733 73 120.468 72.8697 120.222 72.6167C119.976 72.3637 119.753 71.9932 119.566 71.5271C119.38 71.061 119.234 70.5087 119.137 69.9029C119.04 69.2971 118.993 68.6501 119.001 68C118.993 67.35 119.04 66.7029 119.137 66.0971C119.234 65.4913 119.38 64.939 119.566 64.4729C119.753 64.0068 119.976 63.6363 120.222 63.3833C120.468 63.1303 120.733 63 121 63C121.267 63 121.532 63.1303 121.778 63.3833C122.024 63.6363 122.247 64.0068 122.434 64.4729C122.62 64.939 122.766 65.4913 122.863 66.0971C122.96 66.7029 123.007 67.35 122.999 68Z" stroke="black" stroke-width="1.2"/>
<defs>
<filter id="filter0_d_2_2" x="4.12763" y="95.855" width="385.129" height="47.635" filterUnits="userSpaceOnUse" color-interpolation-filters="sRGB">
<feFlood flood-opacity="0" result="BackgroundImageFix"/>
<feColorMatrix in="SourceAlpha" type="matrix" values="0 0 0 0 0 0 0 0 0 0 0 0 0 0 0 0 0 0 127 0" result="hardAlpha"/>
<feOffset dy="4"/>
<feGaussianBlur stdDeviation="2"/>
<feComposite in2="hardAlpha" operator="out"/>
<feColorMatrix type="matrix" values="0 0 0 0 0 0 0 0 0 0 0 0 0 0 0 0 0 0 0.25 0"/>
<feBlend mode="normal" in2="BackgroundImageFix" result="effect1_dropShadow_2_2"/>
<feBlend mode="normal" in="SourceGraphic" in2="effect1_dropShadow_2_2" result="shape"/>
</filter>
<radialGradient id="paint0_radial_2_2" cx="0" cy="0" r="1" gradientUnits="userSpaceOnUse" gradientTransform="translate(197.478 60.4686) rotate(90) scale(48.264 72.1427)">
<stop stop-color="#418BFA"/>
<stop offset="0.768316" stop-color="#2E558E" stop-opacity="0.49"/>
<stop offset="1" stop-color="#669AE9" stop-opacity="0"/>
</radialGradient>
</defs>
</svg>
